<?xml version="1.0" encoding="UTF-8"?>
<svg id="Layer_1" data-name="Layer 1" xmlns="http://www.w3.org/2000/svg" viewBox="0 0 396.16 384.13">
  <defs>
    <style>
      .cls-1 {
        stroke-dasharray: 0 0 1.85 1.85;
      }

      .cls-1, .cls-2, .cls-3, .cls-4, .cls-5, .cls-6, .cls-7, .cls-8 {
        stroke-miterlimit: 10;
      }

      .cls-1, .cls-2, .cls-3, .cls-5, .cls-6, .cls-7, .cls-8 {
        fill: none;
        stroke: #00a69c;
      }

      .cls-9 {
        letter-spacing: -.07em;
      }

      .cls-2 {
        stroke-dasharray: 0 0 1.94 1.94;
      }

      .cls-10 {
        font-family: Roboto-Medium, 'Roboto Medium';
        font-weight: 500;
      }

      .cls-10, .cls-11, .cls-12 {
        font-size: 7px;
      }

      .cls-10, .cls-12 {
        fill: #fff;
      }

      .cls-11, .cls-13, .cls-12 {
        font-family: ArialMT, Arial;
      }

      .cls-11, .cls-13, .cls-14 {
        fill: #231f20;
      }

      .cls-13 {
        font-size: 8px;
      }

      .cls-4 {
        stroke: #fff;
      }

      .cls-4, .cls-15 {
        fill: #00a69c;
      }

      .cls-5 {
        stroke-dasharray: 0 0 1.74 1.74;
      }

      .cls-16 {
        letter-spacing: -.11em;
      }

      .cls-6 {
        stroke-dasharray: 0 0 2.03 2.03;
      }

      .cls-17 {
        letter-spacing: -.02em;
      }

      .cls-7 {
        stroke-dasharray: 0 0 2 2;
      }

      .cls-8 {
        stroke-dasharray: 0 0 1.99 1.99;
      }

      .cls-18 {
        letter-spacing: -.04em;
      }

      .cls-19 {
        letter-spacing: -.06em;
      }
    </style>
  </defs>
  <rect class="cls-15" x="1.43" y="267.91" width="74.36" height="18.66"/>
  <path class="cls-14" d="m319.52,345.98c0-.61-.49-1.1-1.1-1.1s-1.1.49-1.1,1.1.49,1.1,1.1,1.1,1.1-.49,1.1-1.1Z"/>
  <path class="cls-14" d="m319.52,362.76c0-.61-.49-1.1-1.1-1.1s-1.1.49-1.1,1.1.49,1.1,1.1,1.1,1.1-.49,1.1-1.1Z"/>
  <text class="cls-11" transform="translate(328.4 19.49)"><tspan x="0" y="0">Retribusi </tspan><tspan x="0" y="8.4">Penyediaan</tspan><tspan class="cls-17" x="36.98" y="8.4"> </tspan><tspan x="38.79" y="8.4">T</tspan><tspan class="cls-9" x="43.07" y="8.4">P</tspan><tspan class="cls-19" x="47.22" y="8.4">A</tspan></text>
  <text class="cls-11" transform="translate(323.95 348.84)"><tspan x="0" y="0">Administrasi PTS</tspan><tspan class="cls-17" x="53.68" y="0">P</tspan><tspan class="cls-16" x="0" y="16.8">T</tspan><tspan x="3.5" y="16.8">eknis : </tspan><tspan x="0" y="25.2">Pergub 102</tspan><tspan class="cls-17" x="36.2" y="25.2"> </tspan><tspan class="cls-16" x="38.01" y="25.2">T</tspan><tspan x="41.51" y="25.2">ahun </tspan><tspan x="0" y="33.6">2021</tspan></text>
  <text class="cls-11" transform="translate(324.74 90.15)"><tspan x="0" y="0">Dinas Lingkungan </tspan><tspan x="0" y="8.4">Hidup</tspan></text>
  <text class="cls-11" transform="translate(162.69 300.04)"><tspan x="0" y="0">Pengelolaan </tspan><tspan x="0" y="8.4">Sampah Mandiri atau </tspan><tspan x="0" y="16.8">bekerja sama </tspan><tspan x="0" y="25.2">dengan pelaku </tspan><tspan x="0" y="33.6">usaha pengolahan </tspan><tspan x="0" y="42">sampah</tspan></text>
  <text class="cls-11" transform="translate(242.56 90.26)"><tspan x="0" y="0">Monitoring Evaluasi </tspan><tspan x="0" y="8.4">Pembaruan</tspan></text>
  <text class="cls-11" transform="translate(162.69 75.08)"><tspan x="0" y="0">Pelaporan </tspan><tspan x="0" y="8.4">Pelaksanaan </tspan><tspan x="0" y="16.8">Pengelolaan </tspan><tspan x="0" y="25.2">Sampah Bulanan</tspan></text>
  <g>
    <path class="cls-14" d="m324.49,299.61v-5.01h1.89c.33,0,.59.02.76.05.25.04.45.12.62.23.17.11.3.28.4.48.1.21.15.43.15.68,0,.43-.14.79-.41,1.08-.27.29-.76.44-1.47.44h-1.29v2.04h-.66Zm.66-2.63h1.3c.43,0,.73-.08.91-.24.18-.16.27-.38.27-.67,0-.21-.05-.39-.16-.54-.11-.15-.25-.25-.42-.3-.11-.03-.32-.04-.62-.04h-1.28v1.79Z"/>
    <path class="cls-14" d="m331.57,298.44l.64.08c-.1.37-.29.66-.56.87-.27.21-.62.31-1.04.31-.53,0-.95-.16-1.26-.49-.31-.33-.47-.79-.47-1.38s.16-1.08.47-1.42c.31-.34.72-.51,1.22-.51s.88.17,1.19.5c.31.33.46.8.46,1.39,0,.04,0,.09,0,.16h-2.71c.02.4.14.7.34.92.2.21.46.32.76.32.23,0,.42-.06.58-.18.16-.12.29-.31.38-.57Zm-2.02-1h2.03c-.03-.3-.1-.53-.23-.69-.2-.24-.45-.36-.76-.36-.28,0-.52.09-.71.28-.19.19-.3.44-.32.76Z"/>
    <path class="cls-14" d="m332.98,299.61v-3.63h.55v.52c.27-.4.65-.6,1.16-.6.22,0,.42.04.6.12.18.08.32.18.41.31.09.13.15.28.19.46.02.11.03.31.03.6v2.23h-.62v-2.21c0-.25-.02-.44-.07-.56s-.13-.22-.25-.3c-.12-.07-.27-.11-.43-.11-.26,0-.49.08-.68.25-.19.17-.29.48-.29.95v1.98h-.62Z"/>
    <path class="cls-14" d="m336.76,299.91l.6.09c.02.18.09.32.21.4.15.11.36.17.63.17.28,0,.5-.06.66-.17.16-.11.26-.27.31-.48.03-.13.05-.39.04-.79-.27.32-.6.48-1,.48-.5,0-.89-.18-1.16-.54-.27-.36-.41-.79-.41-1.3,0-.35.06-.67.19-.96.12-.29.31-.52.54-.68.24-.16.52-.24.84-.24.43,0,.78.17,1.06.52v-.44h.57v3.14c0,.56-.06.97-.17,1.2-.11.24-.3.42-.55.56-.25.14-.56.21-.92.21-.43,0-.78-.1-1.05-.29-.27-.19-.4-.49-.39-.88Zm.51-2.18c0,.48.09.82.28,1.04.19.22.43.33.71.33s.52-.11.71-.33.29-.56.29-1.02-.1-.78-.3-1c-.2-.23-.43-.34-.71-.34s-.51.11-.7.33c-.19.22-.29.55-.29.99Z"/>
    <path class="cls-14" d="m343.14,299.61v-.53c-.28.41-.67.62-1.15.62-.21,0-.41-.04-.6-.12-.19-.08-.32-.19-.41-.31s-.15-.28-.19-.46c-.03-.12-.04-.31-.04-.57v-2.25h.62v2.01c0,.32.01.54.04.65.04.16.12.29.25.38.12.09.28.14.46.14s.36-.05.52-.14c.16-.09.28-.22.34-.39.07-.16.1-.4.1-.71v-1.94h.62v3.63h-.55Z"/>
    <path class="cls-14" d="m344.65,299.61v-3.63h.55v.55c.14-.26.27-.43.39-.51.12-.08.25-.12.4-.12.21,0,.42.07.63.2l-.21.57c-.15-.09-.3-.13-.45-.13-.13,0-.25.04-.36.12-.11.08-.18.19-.23.34-.07.22-.1.46-.1.72v1.9h-.62Z"/>
    <path class="cls-14" d="m349.36,299.61v-.53c-.28.41-.67.62-1.15.62-.21,0-.41-.04-.6-.12s-.32-.19-.41-.31c-.09-.12-.15-.28-.19-.46-.02-.12-.04-.31-.04-.57v-2.25h.62v2.01c0,.32.01.54.04.65.04.16.12.29.25.38.13.09.28.14.46.14s.36-.05.52-.14c.16-.09.28-.22.34-.39.07-.16.1-.4.1-.71v-1.94h.62v3.63h-.55Z"/>
    <path class="cls-14" d="m350.63,298.52l.61-.1c.03.24.13.43.29.56.16.13.37.2.65.2s.49-.06.63-.17.21-.25.21-.41c0-.14-.06-.25-.18-.33-.08-.05-.29-.12-.63-.21-.45-.11-.76-.21-.94-.3-.17-.08-.31-.2-.4-.34-.09-.15-.14-.31-.14-.49,0-.16.04-.31.11-.45.07-.14.17-.25.3-.34.1-.07.23-.13.39-.18.17-.05.34-.07.53-.07.28,0,.54.04.75.12.22.08.37.19.48.33.1.14.17.33.21.56l-.6.08c-.03-.19-.11-.33-.24-.44-.13-.11-.32-.16-.56-.16-.28,0-.48.05-.6.14-.12.09-.18.2-.18.33,0,.08.03.15.08.22.05.07.13.12.24.16.06.02.24.08.54.16.44.12.74.21.91.29s.31.18.41.32c.1.14.15.32.15.53s-.06.4-.18.58c-.12.18-.29.32-.52.42-.23.1-.48.15-.77.15-.47,0-.83-.1-1.08-.29-.25-.2-.41-.49-.47-.87Z"/>
    <path class="cls-14" d="m356.75,299.16c-.23.19-.45.33-.66.41-.21.08-.44.12-.68.12-.4,0-.71-.1-.92-.29-.21-.2-.32-.44-.32-.75,0-.18.04-.34.12-.49.08-.15.19-.26.32-.35.13-.09.28-.16.44-.2.12-.03.3-.06.55-.09.5-.06.86-.13,1.1-.21,0-.08,0-.14,0-.16,0-.25-.06-.43-.17-.53-.16-.14-.39-.21-.7-.21-.29,0-.5.05-.64.15-.14.1-.24.28-.31.54l-.6-.08c.05-.26.14-.46.27-.62.12-.16.31-.28.54-.37.24-.08.51-.13.82-.13s.56.04.75.11c.19.07.34.16.43.28.09.11.15.25.19.42.02.11.03.29.03.57v.82c0,.57.01.93.04,1.09.03.15.08.3.16.44h-.64c-.06-.13-.11-.28-.12-.45Zm-.05-1.37c-.22.09-.56.17-1,.23-.25.04-.43.08-.54.12-.11.05-.19.11-.24.2-.06.09-.08.19-.08.29,0,.16.06.3.19.41.12.11.31.16.54.16s.45-.05.63-.16.32-.25.41-.43c.07-.14.1-.34.1-.62v-.23Z"/>
    <path class="cls-14" d="m358.27,299.61v-3.63h.55v.52c.27-.4.65-.6,1.16-.6.22,0,.42.04.6.12.18.08.32.18.41.31.09.13.16.28.19.46.02.11.03.31.03.6v2.23h-.62v-2.21c0-.25-.02-.44-.07-.56s-.13-.22-.25-.3c-.12-.07-.26-.11-.43-.11-.26,0-.49.08-.68.25-.19.17-.29.48-.29.95v1.98h-.62Z"/>
    <path class="cls-14" d="m364.3,299.61v-5.01h.66v5.01h-.66Z"/>
    <path class="cls-14" d="m365.73,299.61v-.5l2.31-2.65c-.26.01-.49.02-.69.02h-1.48v-.5h2.97v.41l-1.97,2.3-.38.42c.28-.02.53-.03.78-.03h1.68v.53h-3.21Z"/>
    <path class="cls-14" d="m369.56,295.31v-.71h.62v.71h-.62Zm0,4.3v-3.63h.62v3.63h-.62Z"/>
    <path class="cls-14" d="m371.11,299.61v-3.63h.55v.52c.27-.4.65-.6,1.16-.6.22,0,.42.04.6.12.18.08.32.18.41.31.09.13.16.28.19.46.02.11.03.31.03.6v2.23h-.62v-2.21c0-.25-.02-.44-.07-.56s-.13-.22-.25-.3c-.12-.07-.26-.11-.43-.11-.26,0-.49.08-.68.25-.19.17-.29.48-.29.95v1.98h-.62Z"/>
    <path class="cls-14" d="m327.78,303h.66v2.89c0,.5-.06.9-.17,1.2-.11.3-.32.54-.62.72-.3.19-.69.28-1.17.28s-.85-.08-1.15-.24c-.3-.16-.51-.4-.64-.7-.13-.31-.19-.73-.19-1.26v-2.89h.66v2.89c0,.43.04.76.12.96s.22.37.42.48c.2.11.44.17.72.17.49,0,.83-.11,1.04-.33.21-.22.31-.65.31-1.27v-2.89Z"/>
    <path class="cls-14" d="m329.22,306.93l.61-.1c.03.24.13.43.29.56.16.13.37.2.65.2s.49-.06.63-.17.21-.25.21-.41c0-.14-.06-.25-.18-.33-.08-.05-.29-.12-.63-.21-.45-.11-.76-.21-.94-.3-.17-.08-.31-.2-.4-.34-.09-.15-.14-.31-.14-.49,0-.16.04-.31.11-.45.07-.14.17-.25.3-.34.1-.07.23-.13.39-.18.17-.05.34-.07.53-.07.28,0,.54.04.75.12.22.08.37.19.48.33.1.14.17.33.21.56l-.6.08c-.03-.19-.11-.33-.24-.44-.13-.11-.32-.16-.56-.16-.28,0-.48.05-.6.14-.12.09-.18.2-.18.33,0,.08.03.15.08.22.05.07.13.12.24.16.06.02.24.08.54.16.44.12.74.21.91.29s.31.18.41.32c.1.14.15.32.15.53s-.06.4-.18.58c-.12.18-.29.32-.52.42-.23.1-.48.15-.77.15-.47,0-.83-.1-1.08-.29-.25-.2-.41-.49-.47-.87Z"/>
    <path class="cls-14" d="m335.34,307.56c-.23.19-.45.33-.66.41-.21.08-.44.12-.68.12-.4,0-.71-.1-.92-.29-.21-.2-.32-.44-.32-.75,0-.18.04-.34.12-.49.08-.15.19-.26.32-.35.13-.09.28-.16.44-.2.12-.03.3-.06.55-.09.5-.06.86-.13,1.1-.21,0-.08,0-.14,0-.16,0-.25-.06-.43-.17-.53-.16-.14-.39-.21-.7-.21-.29,0-.5.05-.64.15-.14.1-.24.28-.31.54l-.6-.08c.05-.26.14-.46.27-.62.12-.16.31-.28.54-.37.24-.08.51-.13.82-.13s.56.04.75.11c.19.07.34.16.43.28.09.11.15.25.19.42.02.11.03.29.03.57v.82c0,.57.01.93.04,1.09.03.15.08.3.16.44h-.64c-.06-.13-.11-.28-.12-.45Zm-.05-1.37c-.22.09-.56.17-1,.23-.25.04-.43.08-.54.12-.11.05-.19.11-.24.2-.06.09-.08.19-.08.29,0,.16.06.3.19.41.12.11.31.16.54.16s.45-.05.63-.16.32-.25.41-.43c.07-.14.1-.34.1-.62v-.23Z"/>
    <path class="cls-14" d="m336.86,308.01v-5.01h.62v1.8c.29-.33.65-.5,1.09-.5.27,0,.5.05.7.16.2.11.34.25.43.44.08.19.13.46.13.81v2.3h-.62v-2.3c0-.31-.07-.53-.2-.67-.13-.14-.32-.21-.57-.21-.18,0-.35.05-.51.14-.16.09-.27.22-.34.38-.07.16-.1.39-.1.67v1.99h-.62Z"/>
    <path class="cls-14" d="m343.12,307.56c-.23.19-.45.33-.66.41-.21.08-.44.12-.68.12-.4,0-.71-.1-.92-.29-.21-.2-.32-.44-.32-.75,0-.18.04-.34.12-.49.08-.15.19-.26.32-.35.13-.09.28-.16.44-.2.12-.03.3-.06.55-.09.5-.06.86-.13,1.1-.21,0-.08,0-.14,0-.16,0-.25-.06-.43-.17-.53-.16-.14-.39-.21-.7-.21-.29,0-.5.05-.64.15-.14.1-.24.28-.31.54l-.6-.08c.05-.26.14-.46.27-.62.12-.16.31-.28.54-.37.24-.08.51-.13.82-.13s.56.04.75.11c.19.07.34.16.43.28.09.11.15.25.19.42.02.11.03.29.03.57v.82c0,.57.01.93.04,1.09.03.15.08.3.16.44h-.64c-.06-.13-.11-.28-.12-.45Zm-.05-1.37c-.22.09-.56.17-1,.23-.25.04-.43.08-.54.12-.11.05-.19.11-.24.2-.06.09-.08.19-.08.29,0,.16.06.3.19.41.12.11.31.16.54.16s.45-.05.63-.16.32-.25.41-.43c.07-.14.1-.34.1-.62v-.23Z"/>
    <path class="cls-14" d="m346.64,308.01v-5.01h1.88c.38,0,.69.05.92.15.23.1.41.26.54.47.13.21.2.43.2.66,0,.21-.06.42-.17.61-.12.19-.29.34-.53.46.3.09.54.24.7.45.16.21.24.47.24.76,0,.24-.05.45-.15.66-.1.2-.22.36-.37.47-.15.11-.33.19-.55.25s-.49.08-.81.08h-1.91Zm.66-2.91h1.08c.29,0,.5-.02.63-.06.17-.05.3-.13.38-.25.09-.12.13-.26.13-.44s-.04-.31-.12-.44c-.08-.13-.19-.21-.34-.26-.15-.05-.4-.07-.76-.07h-1v1.51Zm0,2.31h1.25c.21,0,.37,0,.45-.02.15-.03.28-.07.38-.14.1-.06.19-.16.25-.28.07-.12.1-.26.1-.42,0-.19-.05-.35-.14-.49-.1-.14-.23-.24-.4-.29s-.41-.08-.73-.08h-1.16v1.72Z"/>
    <path class="cls-14" d="m351.27,303.71v-.71h.62v.71h-.62Zm0,4.3v-3.63h.62v3.63h-.62Z"/>
    <path class="cls-14" d="m355.17,308.01v-.46c-.23.36-.57.54-1.01.54-.29,0-.56-.08-.8-.24-.24-.16-.43-.38-.56-.67-.13-.29-.2-.62-.2-.99s.06-.69.18-.99c.12-.29.3-.52.54-.68.24-.16.51-.24.81-.24.22,0,.41.05.58.14.17.09.31.21.42.36v-1.8h.61v5.01h-.57Zm-1.94-1.81c0,.46.1.81.29,1.04.2.23.43.35.69.35s.5-.11.69-.33c.19-.22.28-.56.28-1.01,0-.5-.1-.86-.29-1.09s-.43-.35-.71-.35-.5.11-.69.33c-.18.22-.27.58-.27,1.06Z"/>
    <path class="cls-14" d="m359.08,307.56c-.23.19-.45.33-.66.41-.21.08-.44.12-.68.12-.4,0-.71-.1-.92-.29-.21-.2-.32-.44-.32-.75,0-.18.04-.34.12-.49.08-.15.19-.26.32-.35.13-.09.28-.16.44-.2.12-.03.3-.06.55-.09.5-.06.86-.13,1.1-.21,0-.08,0-.14,0-.16,0-.25-.06-.43-.17-.53-.16-.14-.39-.21-.7-.21-.29,0-.5.05-.64.15-.14.1-.24.28-.31.54l-.6-.08c.05-.26.14-.46.27-.62.12-.16.31-.28.54-.37.24-.08.51-.13.82-.13s.56.04.75.11c.19.07.34.16.43.28.09.11.15.25.19.42.02.11.03.29.03.57v.82c0,.57.01.93.04,1.09.03.15.08.3.16.44h-.64c-.06-.13-.11-.28-.12-.45Zm-.05-1.37c-.22.09-.56.17-1,.23-.25.04-.43.08-.54.12-.11.05-.19.11-.24.2-.06.09-.08.19-.08.29,0,.16.06.3.19.41.12.11.31.16.54.16s.45-.05.63-.16.32-.25.41-.43c.07-.14.1-.34.1-.62v-.23Z"/>
    <path class="cls-14" d="m360.6,308.01v-3.63h.55v.52c.27-.4.65-.6,1.16-.6.22,0,.42.04.6.12.18.08.32.18.41.31.09.13.16.28.19.46.02.11.03.31.03.6v2.23h-.62v-2.21c0-.25-.02-.44-.07-.56s-.13-.22-.25-.3c-.12-.07-.26-.11-.43-.11-.26,0-.49.08-.68.25-.19.17-.29.48-.29.95v1.98h-.62Z"/>
    <path class="cls-14" d="m364.38,308.31l.6.09c.03.18.09.32.21.4.15.11.36.17.62.17.29,0,.5-.06.66-.17.15-.11.26-.27.31-.48.03-.13.05-.39.04-.79-.27.32-.6.48-1,.48-.5,0-.88-.18-1.16-.54-.27-.36-.41-.79-.41-1.3,0-.35.06-.67.19-.96.13-.29.31-.52.55-.68.24-.16.52-.24.84-.24.43,0,.78.17,1.06.52v-.44h.57v3.14c0,.56-.06.97-.17,1.2-.12.24-.3.42-.55.56-.25.14-.56.21-.92.21-.43,0-.78-.1-1.05-.29-.27-.19-.4-.49-.39-.88Zm.51-2.18c0,.48.09.82.28,1.04.19.22.43.33.71.33s.52-.11.71-.33.29-.56.29-1.02-.1-.78-.3-1-.43-.34-.71-.34-.51.11-.7.33c-.19.22-.29.55-.29.99Z"/>
    <path class="cls-14" d="m326.78,315.96c-.23.19-.45.33-.66.41-.21.08-.44.12-.68.12-.4,0-.71-.1-.92-.29-.21-.2-.32-.44-.32-.75,0-.18.04-.34.12-.49.08-.15.19-.26.32-.35s.28-.16.44-.2c.12-.03.3-.06.55-.09.5-.06.86-.13,1.1-.21,0-.08,0-.14,0-.16,0-.25-.06-.43-.17-.53-.16-.14-.39-.21-.7-.21-.29,0-.5.05-.64.15-.14.1-.24.28-.31.54l-.6-.08c.05-.26.14-.47.27-.62.13-.16.31-.28.54-.37.24-.08.51-.13.82-.13s.56.04.76.11c.19.07.34.17.43.28.09.11.16.25.19.42.02.1.03.29.03.57v.82c0,.57.01.93.04,1.08s.08.3.16.44h-.64c-.06-.13-.1-.28-.12-.45Zm-.05-1.37c-.22.09-.56.17-1,.23-.25.04-.43.08-.54.12-.1.04-.19.11-.24.2-.06.09-.09.19-.09.29,0,.16.06.3.19.41s.31.16.54.16.45-.05.63-.16c.18-.1.32-.25.41-.42.07-.14.1-.34.1-.62v-.23Z"/>
    <path class="cls-14" d="m328.31,316.41v-3.63h.55v.52c.27-.4.65-.6,1.16-.6.22,0,.42.04.6.12.18.08.32.18.41.31.09.13.15.28.19.45.02.11.03.31.03.6v2.23h-.62v-2.21c0-.25-.02-.44-.07-.56-.05-.12-.13-.22-.25-.3-.12-.07-.27-.11-.43-.11-.26,0-.49.08-.68.25-.19.17-.29.48-.29.95v1.98h-.62Z"/>
    <path class="cls-14" d="m332.09,316.71l.6.09c.02.18.09.32.21.4.15.11.36.17.63.17.28,0,.5-.06.66-.17.16-.11.26-.27.31-.48.03-.12.05-.39.04-.79-.27.32-.6.47-1,.47-.5,0-.89-.18-1.16-.54-.27-.36-.41-.79-.41-1.29,0-.35.06-.67.19-.96.12-.29.31-.52.54-.68.24-.16.52-.24.84-.24.43,0,.78.17,1.06.52v-.44h.57v3.14c0,.57-.06.97-.17,1.2-.11.24-.3.42-.55.56-.25.14-.56.21-.92.21-.43,0-.78-.1-1.05-.29-.27-.19-.4-.49-.39-.88Zm.51-2.18c0,.48.09.82.28,1.04.19.22.43.33.71.33s.52-.11.71-.33c.19-.22.29-.56.29-1.02s-.1-.78-.3-1c-.2-.23-.43-.34-.71-.34s-.51.11-.7.33c-.19.22-.29.55-.29.99Z"/>
    <path class="cls-14" d="m336.1,316.41v-5.01h.62v2.86l1.46-1.48h.8l-1.39,1.35,1.53,2.28h-.76l-1.2-1.86-.43.42v1.44h-.62Z"/>
    <path class="cls-14" d="m341.97,316.41v-.53c-.28.41-.67.62-1.15.62-.21,0-.41-.04-.6-.12-.19-.08-.32-.18-.41-.31-.09-.12-.15-.28-.19-.46-.03-.12-.04-.31-.04-.57v-2.25h.62v2.01c0,.32.01.54.04.65.04.16.12.29.25.38.12.09.28.14.46.14s.36-.05.52-.14c.16-.09.28-.22.34-.39.07-.16.1-.4.1-.71v-1.95h.62v3.63h-.55Z"/>
    <path class="cls-14" d="m344.83,315.86l.09.54c-.17.04-.33.05-.46.05-.22,0-.4-.04-.52-.11-.12-.07-.21-.16-.26-.28-.05-.11-.08-.36-.08-.73v-2.09h-.45v-.48h.45v-.9l.61-.37v1.27h.62v.48h-.62v2.12c0,.17.01.29.03.34.02.05.06.09.11.12.05.03.12.04.21.04.07,0,.16,0,.27-.02Z"/>
    <path class="cls-14" d="m347.8,315.96c-.23.19-.45.33-.66.41-.21.08-.44.12-.68.12-.4,0-.71-.1-.92-.29-.21-.2-.32-.44-.32-.75,0-.18.04-.34.12-.49.08-.15.19-.26.32-.35.13-.09.28-.16.44-.2.12-.03.3-.06.55-.09.5-.06.86-.13,1.1-.21,0-.08,0-.14,0-.16,0-.25-.06-.43-.17-.53-.16-.14-.39-.21-.7-.21-.29,0-.5.05-.64.15-.14.1-.24.28-.31.54l-.6-.08c.05-.26.14-.47.27-.62.12-.16.31-.28.54-.37.24-.08.51-.13.82-.13s.56.04.75.11c.19.07.34.17.43.28.09.11.15.25.19.42.02.1.03.29.03.57v.82c0,.57.01.93.04,1.08.03.15.08.3.16.44h-.64c-.06-.13-.11-.28-.12-.45Zm-.05-1.37c-.22.09-.56.17-1,.23-.25.04-.43.08-.54.12-.11.04-.19.11-.24.2-.06.09-.08.19-.08.29,0,.16.06.3.19.41.12.11.31.16.54.16s.45-.05.63-.16c.18-.1.32-.25.41-.42.07-.14.1-.34.1-.62v-.23Z"/>
    <path class="cls-14" d="m349.32,316.41v-3.63h.55v.52c.27-.4.65-.6,1.16-.6.22,0,.42.04.6.12.18.08.32.18.41.31.09.13.16.28.19.45.02.11.03.31.03.6v2.23h-.62v-2.21c0-.25-.02-.44-.07-.56-.05-.12-.13-.22-.25-.3s-.26-.11-.43-.11c-.26,0-.49.08-.68.25-.19.17-.29.48-.29.95v1.98h-.62Z"/>
    <path class="cls-14" d="m324.46,324.81v-5.01h.66v2.48l2.49-2.48h.9l-2.1,2.03,2.19,2.98h-.88l-1.78-2.54-.82.8v1.74h-.66Z"/>
    <path class="cls-14" d="m331.57,323.64l.64.08c-.1.37-.29.66-.56.87-.27.21-.62.31-1.04.31-.53,0-.95-.16-1.26-.49-.31-.33-.47-.79-.47-1.38s.16-1.08.47-1.42c.31-.34.72-.51,1.22-.51s.88.17,1.19.5c.31.33.46.8.46,1.39,0,.04,0,.09,0,.16h-2.71c.02.4.14.7.34.92.2.21.46.32.76.32.23,0,.42-.06.58-.18.16-.12.29-.31.38-.57Zm-2.02-1h2.03c-.03-.3-.1-.53-.23-.69-.2-.24-.45-.36-.76-.36-.28,0-.52.09-.71.28-.19.19-.3.44-.32.76Z"/>
    <path class="cls-14" d="m333.54,324.81h-.57v-5.01h.62v1.79c.26-.33.59-.49.99-.49.22,0,.43.04.63.13.2.09.36.22.49.38.13.16.23.36.3.59.07.23.11.48.11.74,0,.62-.15,1.1-.46,1.44-.31.34-.68.51-1.11.51s-.76-.18-1.01-.54v.46Zm0-1.84c0,.44.06.75.18.94.19.32.46.48.79.48.27,0,.5-.12.7-.35.2-.23.29-.58.29-1.04s-.09-.82-.28-1.05c-.19-.23-.42-.34-.68-.34s-.5.12-.7.35c-.2.23-.29.57-.29,1.01Z"/>
    <path class="cls-14" d="m339.35,323.64l.64.08c-.1.37-.29.66-.56.87-.27.21-.62.31-1.04.31-.53,0-.95-.16-1.26-.49-.31-.33-.47-.79-.47-1.38s.16-1.08.47-1.42c.31-.34.72-.51,1.22-.51s.88.17,1.19.5c.31.33.46.8.46,1.39,0,.04,0,.09,0,.16h-2.71c.02.4.14.7.34.92.2.21.46.32.76.32.23,0,.42-.06.58-.18.16-.12.29-.31.38-.57Zm-2.02-1h2.03c-.03-.3-.1-.53-.23-.69-.2-.24-.45-.36-.76-.36-.28,0-.52.09-.71.28-.19.19-.3.44-.32.76Z"/>
    <path class="cls-14" d="m340.75,324.81v-3.63h.55v.55c.14-.26.27-.43.39-.51.12-.08.25-.12.39-.12.21,0,.42.07.63.2l-.21.57c-.15-.09-.3-.13-.45-.13-.13,0-.26.04-.36.12-.11.08-.18.19-.23.34-.07.22-.1.46-.1.72v1.9h-.62Z"/>
    <path class="cls-14" d="m342.85,323.73l.61-.1c.03.24.13.43.29.56.16.13.37.2.65.2s.49-.06.63-.17.21-.25.21-.41c0-.14-.06-.25-.18-.33-.08-.05-.29-.12-.63-.21-.45-.11-.76-.21-.94-.3-.17-.08-.31-.2-.4-.34-.09-.15-.14-.31-.14-.49,0-.16.04-.31.11-.45.07-.14.17-.25.3-.34.1-.07.23-.13.39-.18.17-.05.34-.07.53-.07.28,0,.54.04.75.12.22.08.37.19.48.33.1.14.17.33.21.56l-.6.08c-.03-.19-.11-.33-.24-.44-.13-.11-.32-.16-.56-.16-.28,0-.48.05-.6.14-.12.09-.18.2-.18.33,0,.08.03.15.08.22.05.07.13.12.24.16.06.02.24.08.54.16.44.12.74.21.91.29s.31.18.41.32c.1.14.15.32.15.53s-.06.4-.18.58c-.12.18-.29.32-.52.42-.23.1-.48.15-.77.15-.47,0-.83-.1-1.08-.29-.25-.2-.41-.49-.47-.87Z"/>
    <path class="cls-14" d="m346.6,320.51v-.71h.62v.71h-.62Zm0,4.3v-3.63h.62v3.63h-.62Z"/>
    <path class="cls-14" d="m348.15,324.81v-5.01h.62v1.8c.29-.33.65-.5,1.09-.5.27,0,.5.05.7.16.2.11.34.25.43.44.08.19.13.46.13.81v2.3h-.62v-2.3c0-.31-.07-.53-.2-.67-.13-.14-.32-.21-.57-.21-.18,0-.35.05-.51.14-.16.09-.27.22-.34.38-.07.16-.1.39-.1.67v1.99h-.62Z"/>
    <path class="cls-14" d="m354.41,324.36c-.23.19-.45.33-.66.41-.21.08-.44.12-.68.12-.4,0-.71-.1-.92-.29-.21-.2-.32-.44-.32-.75,0-.18.04-.34.12-.49.08-.15.19-.26.32-.35.13-.09.28-.16.44-.2.12-.03.3-.06.55-.09.5-.06.86-.13,1.1-.21,0-.08,0-.14,0-.16,0-.25-.06-.43-.17-.53-.16-.14-.39-.21-.7-.21-.29,0-.5.05-.64.15-.14.1-.24.28-.31.54l-.6-.08c.05-.26.14-.46.27-.62.12-.16.31-.28.54-.37.24-.08.51-.13.82-.13s.56.04.75.11c.19.07.34.16.43.28.09.11.15.25.19.42.02.11.03.29.03.57v.82c0,.57.01.93.04,1.09.03.15.08.3.16.44h-.64c-.06-.13-.11-.28-.12-.45Zm-.05-1.37c-.22.09-.56.17-1,.23-.25.04-.43.08-.54.12-.11.05-.19.11-.24.2-.06.09-.08.19-.08.29,0,.16.06.3.19.41.12.11.31.16.54.16s.45-.05.63-.16.32-.25.41-.43c.07-.14.1-.34.1-.62v-.23Z"/>
    <path class="cls-14" d="m355.93,324.81v-3.63h.55v.52c.27-.4.65-.6,1.16-.6.22,0,.42.04.6.12.18.08.32.18.41.31.09.13.16.28.19.46.02.11.03.31.03.6v2.23h-.62v-2.21c0-.25-.02-.44-.07-.56s-.13-.22-.25-.3c-.12-.07-.26-.11-.43-.11-.26,0-.49.08-.68.25-.19.17-.29.48-.29.95v1.98h-.62Z"/>
    <path class="cls-14" d="m359.37,324.89l1.45-5.18h.49l-1.45,5.18h-.5Z"/>
    <path class="cls-14" d="m361.77,326.2v-5.02h.56v.47c.13-.18.28-.32.45-.42.17-.09.37-.14.61-.14.31,0,.58.08.82.24.24.16.42.38.54.67.12.29.18.61.18.96,0,.37-.07.71-.2,1-.13.3-.33.52-.58.68-.25.16-.52.24-.8.24-.21,0-.39-.04-.55-.13-.16-.09-.3-.2-.4-.33v1.77h-.62Zm.56-3.19c0,.47.09.81.28,1.04.19.22.42.33.69.33s.51-.12.7-.35c.2-.23.29-.59.29-1.08s-.1-.81-.29-1.04c-.19-.23-.42-.35-.68-.35s-.49.12-.7.37c-.2.24-.3.6-.3,1.07Z"/>
    <path class="cls-14" d="m368.15,323.64l.64.08c-.1.37-.29.66-.56.87-.27.21-.62.31-1.04.31-.53,0-.95-.16-1.26-.49-.31-.33-.47-.79-.47-1.38s.16-1.08.47-1.42c.31-.34.72-.51,1.22-.51s.88.17,1.19.5c.31.33.46.8.46,1.39,0,.04,0,.09,0,.16h-2.71c.02.4.14.7.34.92.2.21.46.32.76.32.23,0,.42-.06.58-.18.16-.12.29-.31.38-.57Zm-2.02-1h2.03c-.03-.3-.11-.53-.23-.69-.2-.24-.45-.36-.76-.36-.28,0-.52.09-.71.28-.19.19-.3.44-.32.76Z"/>
    <path class="cls-14" d="m369.56,324.81v-3.63h.55v.52c.27-.4.65-.6,1.16-.6.22,0,.42.04.6.12.18.08.32.18.41.31.09.13.16.28.19.46.02.11.03.31.03.6v2.23h-.62v-2.21c0-.25-.02-.44-.07-.56s-.13-.22-.25-.3c-.12-.07-.26-.11-.43-.11-.26,0-.49.08-.68.25-.19.17-.29.48-.29.95v1.98h-.62Z"/>
    <path class="cls-14" d="m373.34,325.11l.6.09c.03.18.09.32.21.4.15.11.36.17.62.17.29,0,.5-.06.66-.17.15-.11.26-.27.31-.48.03-.13.05-.39.04-.79-.27.32-.6.48-1,.48-.5,0-.88-.18-1.16-.54-.27-.36-.41-.79-.41-1.3,0-.35.06-.67.19-.96.13-.29.31-.52.55-.68.24-.16.52-.24.84-.24.43,0,.78.17,1.06.52v-.44h.57v3.14c0,.56-.06.97-.17,1.2-.12.24-.3.42-.55.56-.25.14-.56.21-.92.21-.43,0-.78-.1-1.05-.29-.27-.19-.4-.49-.39-.88Zm.51-2.18c0,.48.09.82.28,1.04.19.22.43.33.71.33s.52-.11.71-.33.29-.56.29-1.02-.1-.78-.3-1-.43-.34-.71-.34-.51.11-.7.33c-.19.22-.29.55-.29.99Z"/>
    <path class="cls-14" d="m379.83,323.64l.64.08c-.1.37-.29.66-.56.87-.27.21-.62.31-1.04.31-.53,0-.95-.16-1.26-.49-.31-.33-.47-.79-.47-1.38s.16-1.08.47-1.42c.31-.34.72-.51,1.22-.51s.88.17,1.19.5c.31.33.46.8.46,1.39,0,.04,0,.09,0,.16h-2.71c.02.4.14.7.34.92.2.21.46.32.76.32.23,0,.42-.06.58-.18.16-.12.29-.31.38-.57Zm-2.02-1h2.03c-.03-.3-.1-.53-.23-.69-.2-.24-.45-.36-.76-.36-.28,0-.52.09-.71.28-.19.19-.3.44-.32.76Z"/>
    <path class="cls-14" d="m381,323.31v-.62h1.89v.62h-1.89Z"/>
    <path class="cls-14" d="m324.4,333.21v-5.01h.62v5.01h-.62Z"/>
    <path class="cls-14" d="m325.74,331.39c0-.67.19-1.17.56-1.49.31-.27.69-.4,1.14-.4.5,0,.91.16,1.22.49.32.33.47.78.47,1.36,0,.47-.07.83-.21,1.1-.14.27-.34.48-.61.62-.27.15-.56.22-.88.22-.51,0-.92-.16-1.23-.49-.31-.33-.47-.8-.47-1.41Zm.63,0c0,.46.1.81.3,1.04.2.23.46.35.77.35s.56-.12.76-.35c.2-.23.3-.59.3-1.06,0-.45-.1-.79-.31-1.02-.2-.23-.46-.35-.76-.35s-.56.12-.77.34c-.2.23-.3.58-.3,1.04Z"/>
    <path class="cls-14" d="m329.85,333.21v-5.01h.62v5.01h-.62Z"/>
    <path class="cls-14" d="m333.79,332.76c-.23.19-.45.33-.66.41-.21.08-.44.12-.68.12-.4,0-.71-.1-.92-.29-.21-.2-.32-.44-.32-.75,0-.18.04-.34.12-.49.08-.15.19-.26.32-.35.13-.09.28-.16.44-.2.12-.03.3-.06.55-.09.5-.06.86-.13,1.1-.21,0-.08,0-.14,0-.16,0-.25-.06-.43-.17-.53-.16-.14-.39-.21-.7-.21-.29,0-.5.05-.64.15-.14.1-.24.28-.31.54l-.6-.08c.05-.26.14-.47.27-.62.12-.16.31-.28.54-.37.24-.08.51-.13.82-.13s.56.04.75.11c.19.07.34.17.43.28.09.11.15.25.19.42.02.1.03.29.03.57v.82c0,.57.01.93.04,1.08.03.15.08.3.16.44h-.64c-.06-.13-.11-.28-.12-.45Zm-.05-1.37c-.22.09-.56.17-1,.23-.25.04-.43.08-.54.12-.11.04-.19.11-.24.2-.06.09-.08.19-.08.29,0,.16.06.3.19.41.12.11.31.16.54.16s.45-.05.63-.16c.18-.1.32-.25.41-.42.07-.14.1-.34.1-.62v-.23Z"/>
    <path class="cls-14" d="m337.68,332.76c-.23.19-.45.33-.66.41-.21.08-.44.12-.68.12-.4,0-.71-.1-.92-.29-.21-.2-.32-.44-.32-.75,0-.18.04-.34.12-.49.08-.15.19-.26.32-.35s.28-.16.44-.2c.12-.03.3-.06.55-.09.5-.06.86-.13,1.1-.21,0-.08,0-.14,0-.16,0-.25-.06-.43-.17-.53-.16-.14-.39-.21-.7-.21-.29,0-.5.05-.64.15-.14.1-.24.28-.31.54l-.6-.08c.05-.26.14-.47.27-.62.13-.16.31-.28.54-.37.24-.08.51-.13.82-.13s.56.04.76.11c.19.07.34.17.43.28.09.11.16.25.19.42.02.1.03.29.03.57v.82c0,.57.01.93.04,1.08s.08.3.16.44h-.64c-.06-.13-.1-.28-.12-.45Zm-.05-1.37c-.22.09-.56.17-1,.23-.25.04-.43.08-.54.12-.1.04-.19.11-.24.2-.06.09-.09.19-.09.29,0,.16.06.3.19.41s.31.16.54.16.45-.05.63-.16c.18-.1.32-.25.41-.42.07-.14.1-.34.1-.62v-.23Z"/>
    <path class="cls-14" d="m339.2,333.21v-3.63h.55v.52c.27-.4.65-.6,1.16-.6.22,0,.42.04.6.12.18.08.32.18.41.31.09.13.15.28.19.45.02.11.03.31.03.6v2.23h-.62v-2.21c0-.25-.02-.44-.07-.56-.05-.12-.13-.22-.25-.3-.12-.07-.27-.11-.43-.11-.26,0-.49.08-.68.25-.19.17-.29.48-.29.95v1.98h-.62Z"/>
    <path class="cls-14" d="m344.79,332.13l.61-.1c.03.24.13.43.29.56.16.13.37.19.65.19s.49-.06.63-.17c.14-.11.21-.25.21-.4,0-.14-.06-.25-.18-.33-.08-.05-.29-.12-.63-.21-.45-.11-.76-.21-.94-.3-.17-.08-.31-.2-.4-.34-.09-.15-.14-.31-.14-.49,0-.16.04-.31.11-.45s.17-.25.3-.34c.1-.07.23-.13.39-.18.17-.05.34-.07.53-.07.28,0,.54.04.75.12.22.08.37.19.48.33.1.14.17.33.21.56l-.6.08c-.03-.19-.11-.33-.24-.44-.13-.1-.32-.16-.56-.16-.28,0-.48.05-.6.14-.12.09-.18.2-.18.33,0,.08.03.15.08.21.05.07.13.12.24.16.06.02.24.08.54.16.44.12.74.21.91.29.17.07.31.18.41.32.1.14.15.32.15.53s-.06.4-.18.58c-.12.18-.29.32-.52.42-.23.1-.48.15-.77.15-.47,0-.83-.1-1.08-.29-.25-.2-.41-.49-.47-.87Z"/>
    <path class="cls-14" d="m350.91,332.76c-.23.19-.45.33-.66.41-.21.08-.44.12-.68.12-.4,0-.71-.1-.92-.29-.21-.2-.32-.44-.32-.75,0-.18.04-.34.12-.49.08-.15.19-.26.32-.35.13-.09.28-.16.44-.2.12-.03.3-.06.55-.09.5-.06.86-.13,1.1-.21,0-.08,0-.14,0-.16,0-.25-.06-.43-.17-.53-.16-.14-.39-.21-.7-.21-.29,0-.5.05-.64.15-.14.1-.24.28-.31.54l-.6-.08c.05-.26.14-.47.27-.62.12-.16.31-.28.54-.37.24-.08.51-.13.82-.13s.56.04.75.11c.19.07.34.17.43.28.09.11.15.25.19.42.02.1.03.29.03.57v.82c0,.57.01.93.04,1.08.03.15.08.3.16.44h-.64c-.06-.13-.11-.28-.12-.45Zm-.05-1.37c-.22.09-.56.17-1,.23-.25.04-.43.08-.54.12-.11.04-.19.11-.24.2-.06.09-.08.19-.08.29,0,.16.06.3.19.41.12.11.31.16.54.16s.45-.05.63-.16c.18-.1.32-.25.41-.42.07-.14.1-.34.1-.62v-.23Z"/>
    <path class="cls-14" d="m352.43,333.21v-3.63h.55v.51c.11-.18.27-.32.46-.43.19-.11.4-.16.65-.16.27,0,.49.06.66.17.17.11.29.27.36.47.29-.42.66-.64,1.12-.64.36,0,.64.1.83.3.19.2.29.51.29.92v2.49h-.61v-2.29c0-.25-.02-.42-.06-.53-.04-.11-.11-.2-.22-.26-.1-.07-.23-.1-.37-.1-.25,0-.47.08-.64.25-.17.17-.25.44-.25.82v2.11h-.62v-2.36c0-.27-.05-.48-.15-.62-.1-.14-.26-.21-.49-.21-.17,0-.33.05-.48.14-.15.09-.25.22-.32.4-.07.17-.1.43-.1.76v1.88h-.62Z"/>
    <path class="cls-14" d="m358.27,334.6v-5.02h.56v.47c.13-.18.28-.32.45-.42.17-.09.37-.14.61-.14.31,0,.58.08.82.24.24.16.42.38.54.67.12.29.18.61.18.96,0,.37-.07.71-.2,1-.13.3-.33.53-.58.68s-.52.24-.8.24c-.21,0-.39-.04-.55-.13-.16-.09-.3-.2-.4-.33v1.77h-.62Zm.56-3.19c0,.47.09.81.28,1.04.19.22.42.33.69.33s.51-.12.7-.35c.2-.23.29-.59.29-1.08s-.1-.81-.29-1.04c-.19-.23-.42-.34-.68-.34s-.49.12-.7.37c-.2.25-.3.6-.3,1.07Z"/>
    <path class="cls-14" d="m364.53,332.76c-.23.19-.45.33-.66.41-.21.08-.44.12-.68.12-.4,0-.71-.1-.92-.29-.21-.2-.32-.44-.32-.75,0-.18.04-.34.12-.49.08-.15.19-.26.32-.35.13-.09.28-.16.44-.2.12-.03.3-.06.55-.09.5-.06.86-.13,1.1-.21,0-.08,0-.14,0-.16,0-.25-.06-.43-.17-.53-.16-.14-.39-.21-.7-.21-.29,0-.5.05-.64.15-.14.1-.24.28-.31.54l-.6-.08c.05-.26.14-.47.27-.62.12-.16.31-.28.54-.37.24-.08.51-.13.82-.13s.56.04.75.11c.19.07.34.17.43.28.09.11.15.25.19.42.02.1.03.29.03.57v.82c0,.57.01.93.04,1.08.03.15.08.3.16.44h-.64c-.06-.13-.11-.28-.12-.45Zm-.05-1.37c-.22.09-.56.17-1,.23-.25.04-.43.08-.54.12-.11.04-.19.11-.24.2-.06.09-.08.19-.08.29,0,.16.06.3.19.41.12.11.31.16.54.16s.45-.05.63-.16c.18-.1.32-.25.41-.42.07-.14.1-.34.1-.62v-.23Z"/>
    <path class="cls-14" d="m366.05,333.21v-5.01h.62v1.8c.29-.33.65-.5,1.09-.5.27,0,.5.05.7.16.2.11.34.25.43.44.08.19.13.46.13.81v2.3h-.62v-2.3c0-.31-.07-.53-.2-.67-.13-.14-.32-.21-.57-.21-.18,0-.35.05-.51.14-.16.09-.27.22-.34.38-.07.16-.1.38-.1.67v1.99h-.62Z"/>
  </g>
  <text class="cls-11" transform="translate(81.3 90.98)"><tspan x="0" y="0">Pelaksanaan </tspan><tspan x="0" y="8.4">Pengelolaan Sampah</tspan></text>
  <text class="cls-13" transform="translate(20.48 181.01)"><tspan x="0" y="0">Daftar</tspan></text>
  <text class="cls-13" transform="translate(169.48 162.29)"><tspan x="0" y="0">Pembinaan &amp; Pengawasan</tspan></text>
  <text class="cls-13" transform="translate(300.25 201.37)"><tspan x="0" y="0">Rekomendasi</tspan><tspan class="cls-17" x="48.91" y="0"> </tspan><tspan class="cls-16" x="50.99" y="0">T</tspan><tspan x="54.99" y="0">eknis</tspan></text>
  <text class="cls-11" transform="translate(1.76 90.98)"><tspan x="0" y="0">Pendaftaran </tspan><tspan x="0" y="8.4">Pengelolaan Sampah</tspan></text>
  <g>
    <path class="cls-14" d="m239.18,330.13c0-.6-.49-1.1-1.1-1.1s-1.1.49-1.1,1.1.49,1.1,1.1,1.1,1.1-.49,1.1-1.1Z"/>
    <text class="cls-11" transform="translate(243.38 333.08)"><tspan x="0" y="0">Pergub 102</tspan><tspan class="cls-17" x="36.2" y="0"> </tspan><tspan x="38.01" y="0">Thn 2021</tspan><tspan x="0" y="8.4">- Pemillahan</tspan><tspan x="0" y="16.8">- Pengumpulan</tspan><tspan x="0" y="25.2">- Pengangkutan</tspan><tspan x="0" y="33.6">- Pengolahan</tspan></text>
  </g>
  <text class="cls-11" transform="translate(242.56 300.04)"><tspan x="0" y="0">Penyediaan </tspan><tspan x="0" y="8.4">Prasarana dan </tspan><tspan x="0" y="16.8">Sarana Sampah</tspan></text>
  <path class="cls-4" d="m5.82,277.24c0,4.25,3.44,7.69,7.69,7.69s7.69-3.44,7.69-7.69-3.44-7.69-7.69-7.69-7.69,3.44-7.69,7.69Z"/>
  <text class="cls-11" transform="translate(1.43 300.04)"><tspan x="0" y="0">Kawasan dan </tspan><tspan x="0" y="8.4">Perusahaan</tspan></text>
  <text class="cls-11" transform="translate(82.06 300.04)"><tspan x="0" y="0">Identifikasi</tspan><tspan class="cls-17" x="33.07" y="0"> </tspan><tspan class="cls-18" x="34.89" y="0">T</tspan><tspan x="38.91" y="0">imbulan </tspan><tspan x="0" y="8.4">Sampah</tspan></text>
  <rect class="cls-15" x="81.13" y="267.91" width="74.36" height="18.66"/>
  <rect class="cls-15" x="160.83" y="267.91" width="74.36" height="18.66"/>
  <rect class="cls-15" x="240.53" y="267.91" width="74.36" height="18.66"/>
  <rect class="cls-15" x="320.22" y="267.91" width="74.36" height="18.66"/>
  <text class="cls-10" transform="translate(11.49 119.15)"><tspan x="0" y="0">1</tspan></text>
  <path class="cls-4" d="m84.51,277.24c0,4.25,3.44,7.69,7.69,7.69s7.69-3.44,7.69-7.69-3.44-7.69-7.69-7.69-7.69,3.44-7.69,7.69Z"/>
  <text class="cls-12" transform="translate(90.19 279.77)"><tspan x="0" y="0">2</tspan></text>
  <text class="cls-12" transform="translate(11.49 279.77)"><tspan x="0" y="0">1</tspan></text>
  <path class="cls-4" d="m246.73,277.24c0,4.25,3.44,7.69,7.69,7.69s7.69-3.44,7.69-7.69-3.44-7.69-7.69-7.69-7.69,3.44-7.69,7.69Z"/>
  <path class="cls-4" d="m167.56,277.24c0,4.25,3.44,7.69,7.69,7.69s7.69-3.44,7.69-7.69-3.44-7.69-7.69-7.69-7.69,3.44-7.69,7.69Z"/>
  <text class="cls-12" transform="translate(252.41 279.77)"><tspan x="0" y="0">4</tspan></text>
  <path class="cls-4" d="m325.74,277.24c0,4.25,3.44,7.69,7.69,7.69s7.69-3.44,7.69-7.69-3.44-7.69-7.69-7.69-7.69,3.44-7.69,7.69Z"/>
  <text class="cls-12" transform="translate(331.42 279.77)"><tspan x="0" y="0">5</tspan></text>
  <text class="cls-12" transform="translate(173.24 279.77)"><tspan x="0" y="0">3</tspan></text>
  <rect class="cls-15" x="1.43" y="107.31" width="74.36" height="18.66"/>
  <path class="cls-4" d="m5.82,116.64c0,4.25,3.44,7.69,7.69,7.69s7.69-3.44,7.69-7.69-3.44-7.69-7.69-7.69-7.69,3.44-7.69,7.69Z"/>
  <rect class="cls-15" x="81.13" y="107.31" width="74.36" height="18.66"/>
  <rect class="cls-15" x="160.83" y="107.31" width="74.36" height="18.66"/>
  <rect class="cls-15" x="240.53" y="107.31" width="74.36" height="18.66"/>
  <rect class="cls-15" x="320.22" y="107.31" width="74.36" height="18.66"/>
  <path class="cls-4" d="m84.51,116.64c0,4.25,3.44,7.69,7.69,7.69s7.69-3.44,7.69-7.69-3.44-7.69-7.69-7.69-7.69,3.44-7.69,7.69Z"/>
  <text class="cls-12" transform="translate(90.19 119.17)"><tspan x="0" y="0">7</tspan></text>
  <text class="cls-12" transform="translate(10.94 119.17)"><tspan x="0" y="0">6</tspan></text>
  <path class="cls-4" d="m246.73,116.64c0,4.25,3.44,7.69,7.69,7.69s7.69-3.44,7.69-7.69-3.44-7.69-7.69-7.69-7.69,3.44-7.69,7.69Z"/>
  <path class="cls-4" d="m167.56,116.64c0,4.25,3.44,7.69,7.69,7.69s7.69-3.44,7.69-7.69-3.44-7.69-7.69-7.69-7.69,3.44-7.69,7.69Z"/>
  <text class="cls-12" transform="translate(252.41 119.17)"><tspan x="0" y="0">9</tspan></text>
  <path class="cls-4" d="m325.74,116.64c0,4.25,3.44,7.69,7.69,7.69s7.69-3.44,7.69-7.69-3.44-7.69-7.69-7.69-7.69,3.44-7.69,7.69Z"/>
  <text class="cls-12" transform="translate(329.42 119.17)"><tspan x="0" y="0">10</tspan></text>
  <text class="cls-12" transform="translate(173.24 119.17)"><tspan x="0" y="0">8</tspan></text>
  <g>
    <rect class="cls-15" x="125.53" y="1.98" width="141.97" height="34.62"/>
    <text class="cls-12" transform="translate(138.91 11.71)"><tspan x="0" y="0">Rekapitulasi Bulanan Sampah</tspan><tspan x="0" y="9" xml:space="preserve">Rekapitulasi  Pengangkutan Sampah</tspan><tspan x="0" y="18">Rekapitulasi Pengolahan Sampah</tspan></text>
    <path class="cls-14" d="m135.9,9.16c0,.81-.66,1.47-1.47,1.47s-1.47-.66-1.47-1.47.66-1.47,1.47-1.47,1.47.66,1.47,1.47Z"/>
    <path class="cls-14" d="m135.9,18.26c0,.81-.66,1.47-1.47,1.47s-1.47-.66-1.47-1.47.66-1.47,1.47-1.47,1.47.66,1.47,1.47Z"/>
    <circle class="cls-14" cx="134.43" cy="27.02" r="1.47"/>
  </g>
  <g>
    <line class="cls-3" x1="176.81" y1="60.98" x2="176.81" y2="59.98"/>
    <line class="cls-5" x1="176.81" y1="58.24" x2="176.81" y2="48.69"/>
    <line class="cls-3" x1="176.81" y1="47.82" x2="176.81" y2="46.82"/>
    <polygon class="cls-15" points="179.3 47.55 176.81 43.23 174.32 47.55 179.3 47.55"/>
  </g>
  <g>
    <line class="cls-7" x1="273.54" y1="21.14" x2="317.75" y2="21.14"/>
    <polygon class="cls-15" points="317.02 23.64 321.34 21.14 317.02 18.65 317.02 23.64"/>
  </g>
  <g>
    <line class="cls-3" x1="347.35" y1="38.72" x2="347.35" y2="39.72"/>
    <line class="cls-1" x1="347.35" y1="41.57" x2="347.35" y2="59.14"/>
    <line class="cls-3" x1="347.35" y1="60.06" x2="347.35" y2="61.06"/>
    <polygon class="cls-15" points="344.86 60.33 347.35 64.65 349.85 60.33 344.86 60.33"/>
  </g>
  <g>
    <line class="cls-3" x1="13.5" y1="130.42" x2="13.5" y2="131.42"/>
    <line class="cls-6" x1="13.5" y1="133.44" x2="13.5" y2="185.09"/>
    <polyline class="cls-3" points="13.5 186.1 13.5 187.1 14.5 187.1"/>
    <line class="cls-8" x1="16.49" y1="187.1" x2="354.03" y2="187.1"/>
    <polyline class="cls-3" points="355.03 187.1 356.03 187.1 356.03 186.1"/>
    <line class="cls-2" x1="356.03" y1="184.16" x2="356.03" y2="134.64"/>
    <line class="cls-3" x1="356.03" y1="133.67" x2="356.03" y2="132.67"/>
    <polygon class="cls-15" points="358.52 133.4 356.03 129.08 353.54 133.4 358.52 133.4"/>
  </g>
  <g>
    <polyline class="cls-7" points="333.43 135.31 333.43 169.55 90.19 169.55 90.19 134.77"/>
    <polygon class="cls-15" points="92.68 135.5 90.19 131.19 87.7 135.5 92.68 135.5"/>
  </g>
  <g>
    <polyline class="cls-7" points="386.67 131.19 386.67 214.07 333.43 214.07 333.43 256.5"/>
    <polygon class="cls-15" points="330.94 255.77 333.43 260.09 335.92 255.77 330.94 255.77"/>
  </g>
</svg>