<?xml version="1.0" encoding="UTF-8"?>
<svg id="Layer_1" data-name="Layer 1" xmlns="http://www.w3.org/2000/svg" xmlns:xlink="http://www.w3.org/1999/xlink" viewBox="0 0 305.18 504.5">
  <defs>
    <style>
      .cls-1 {
        font-size: 7px;
      }

      .cls-1, .cls-2 {
        fill: #fff;
        font-family: ArialMT, Arial;
      }

      .cls-3 {
        letter-spacing: -.11em;
      }

      .cls-4, .cls-5 {
        fill: none;
      }

      .cls-5 {
        stroke: #c1b49a;
        stroke-dasharray: 0 0 2 2;
        stroke-miterlimit: 10;
      }

      .cls-6 {
        letter-spacing: -.02em;
      }

      .cls-7 {
        letter-spacing: -.06em;
      }

      .cls-2 {
        font-size: 8px;
      }

      .cls-8 {
        fill: #c1b49a;
      }

      .cls-9 {
        fill: #58595b;
      }
    </style>
    <clipPath id="clippath">
      <rect class="cls-4" x="-442.36" y="-596.91" width="422.36" height="594.41"/>
    </clipPath>
    <clipPath id="clippath-1">
      <rect class="cls-4" x="-439.1" width="419.1" height="595.21"/>
    </clipPath>
  </defs>
  <rect class="cls-9" x="53.28" y="56.3" width="42.38" height="16.36"/>
  <text class="cls-2" transform="translate(59.91 67.51)"><tspan x="0" y="0">Mandiri</tspan></text>
  <rect class="cls-9" x="209.95" y="56.3" width="42.38" height="17.12"/>
  <text class="cls-2" transform="translate(219.37 67.89)"><tspan x="0" y="0">B</tspan><tspan class="cls-6" x="5.34" y="0"> </tspan><tspan class="cls-3" x="7.41" y="0">T</tspan><tspan x="11.41" y="0">o B</tspan></text>
  <rect class="cls-9" x="92.32" y="121.42" width="119.99" height="27.42"/>
  <text class="cls-1" transform="translate(109.63 131.7)"><tspan x="0" y="0">Pendaftaran dan pelaporan </tspan><tspan x=".59" y="8.4">ke Dinas Lingkungan Hidup</tspan></text>
  <rect class="cls-9" x="92.32" y="83.59" width="119.99" height="33.81"/>
  <text class="cls-1" transform="translate(118.78 94.18)"><tspan x="0" y="0">Izin angkutan sampah</tspan><tspan x="-5.07" y="8.4">dan pengelolaan sampah</tspan><tspan x="-15.3" y="16.8">oleh Sudin Dinas PM dan PTS</tspan><tspan class="cls-6" x="79.25" y="16.8">P</tspan></text>
  <rect class="cls-9" x=".74" y=".85" width="67.04" height="32.73"/>
  <rect class="cls-9" x="79.44" y=".85" width="67.04" height="32.73"/>
  <rect class="cls-9" x="158.15" y=".85" width="67.04" height="32.73"/>
  <rect class="cls-9" x="236.85" y=".85" width="67.04" height="32.73"/>
  <text class="cls-2" transform="translate(17.32 14.91)"><tspan x="0" y="0">Kawasan</tspan><tspan x="-4.66" y="9.6">Pemukiman</tspan></text>
  <text class="cls-2" transform="translate(98.44 14.91)"><tspan x="0" y="0">Kawasan</tspan><tspan x="-1.33" y="9.6">Komersial</tspan></text>
  <text class="cls-2" transform="translate(175.21 14.91)"><tspan x="0" y="0">Kawasan</tspan><tspan x="3.34" y="9.6">Industri</tspan></text>
  <text class="cls-2" transform="translate(250.7 19.41)"><tspan x="0" y="0">Perusahaan</tspan></text>
  <g>
    <polyline class="cls-5" points="232.14 77.1 232.14 106.32 232.14 137.72 225.82 137.72"/>
    <polygon class="cls-8" points="226.55 135.23 222.23 137.72 226.55 140.21 226.55 135.23"/>
  </g>
  <g>
    <line class="cls-5" x1="225.82" y1="100.49" x2="232.14" y2="100.49"/>
    <polygon class="cls-8" points="226.55 102.99 222.23 100.49 226.55 98 226.55 102.99"/>
  </g>
  <g>
    <polyline class="cls-5" points="72.56 77.1 72.56 106.32 72.56 137.72 78.88 137.72"/>
    <polygon class="cls-8" points="78.15 140.21 82.47 137.72 78.15 135.23 78.15 140.21"/>
  </g>
  <g>
    <polyline class="cls-5" points="56.95 77.1 56.95 103.24 56.95 172.44 75.85 172.44"/>
    <polygon class="cls-8" points="75.12 174.94 79.44 172.44 75.12 169.95 75.12 174.94"/>
  </g>
  <g>
    <polyline class="cls-5" points="246.7 77.1 246.7 103.24 246.7 172.44 227.8 172.44"/>
    <polygon class="cls-8" points="228.53 169.95 224.21 172.44 228.53 174.94 228.53 169.95"/>
  </g>
  <g>
    <line class="cls-5" x1="78.88" y1="100.49" x2="72.56" y2="100.49"/>
    <polygon class="cls-8" points="78.15 98 82.47 100.49 78.15 102.99 78.15 98"/>
  </g>
  <rect class="cls-9" x="92.32" y="164.47" width="119.99" height="16.36"/>
  <rect class="cls-9" x="92.32" y="227.81" width="52.89" height="53.86"/>
  <rect class="cls-9" x="92.32" y="198.19" width="52.89" height="18.07"/>
  <rect class="cls-9" x="159.42" y="198.19" width="52.89" height="18.07"/>
  <rect class="cls-9" x="159.42" y="227.81" width="52.89" height="18.07"/>
  <text class="cls-1" transform="translate(96.66 238.21)"><tspan x="0" y="0">- Pilah</tspan><tspan x="0" y="8.4">- Kumpul</tspan><tspan x="0" y="16.8">-</tspan><tspan class="cls-7" x="2.33" y="16.8"> </tspan><tspan x="3.89" y="16.8">Angkut</tspan><tspan x="0" y="25.2">- Olah</tspan><tspan x="0" y="33.6">- Proses</tspan><tspan class="cls-7" x="26.06" y="33.6"> </tspan><tspan x="27.62" y="33.6">Akhir</tspan><tspan x="0" y="39.6" xml:space="preserve">  (organik)</tspan></text>
  <polyline class="cls-5" points="34.26 44.69 270.51 44.69 270.51 37.35"/>
  <line class="cls-5" x1="187.2" y1="44.69" x2="187.2" y2="37.35"/>
  <line class="cls-5" x1="111.33" y1="44.69" x2="111.33" y2="37.35"/>
  <line class="cls-5" x1="34.95" y1="44.69" x2="34.95" y2="37.35"/>
  <g>
    <line class="cls-5" x1="118.76" y1="221.9" x2="118.76" y2="218.16"/>
    <polygon class="cls-8" points="121.26 221.17 118.76 225.49 116.27 221.17 121.26 221.17"/>
  </g>
  <g>
    <line class="cls-5" x1="185.87" y1="221.9" x2="185.87" y2="218.16"/>
    <polygon class="cls-8" points="188.36 221.17 185.87 225.49 183.37 221.17 188.36 221.17"/>
  </g>
  <g>
    <line class="cls-5" x1="118.76" y1="192.76" x2="118.76" y2="189.01"/>
    <polygon class="cls-8" points="121.26 192.03 118.76 196.34 116.27 192.03 121.26 192.03"/>
  </g>
  <g>
    <polyline class="cls-5" points="151.01 44.69 151.01 64.86 202.72 64.86"/>
    <polygon class="cls-8" points="201.99 67.35 206.3 64.86 201.99 62.36 201.99 67.35"/>
  </g>
  <g>
    <line class="cls-5" x1="151.01" y1="64.86" x2="105.03" y2="64.86"/>
    <polygon class="cls-8" points="105.76 62.36 101.44 64.86 105.76 67.35 105.76 62.36"/>
  </g>
  <text class="cls-1" transform="translate(107.68 174.68)"><tspan x="0" y="0">Pengelolaan + Sarpras + SDM</tspan></text>
  <text class="cls-1" transform="translate(99.18 209.79)"><tspan x="0" y="0">Penanganan</tspan></text>
  <text class="cls-1" transform="translate(164.87 209.79)"><tspan x="0" y="0">Pengurangan</tspan></text>
  <text class="cls-1" transform="translate(180.86 239.21)"><tspan x="0" y="0">3 R</tspan></text>
  <g>
    <line class="cls-5" x1="185.87" y1="192.76" x2="185.87" y2="189.01"/>
    <polygon class="cls-8" points="188.36 192.03 185.87 196.34 183.37 192.03 188.36 192.03"/>
  </g>
  <line class="cls-5" x1="118.76" y1="189.81" x2="185.87" y2="189.81"/>
  <line class="cls-5" x1="150.85" y1="181" x2="150.85" y2="188.25"/>
  <g>
    <polyline class="cls-5" points="39.2 64.86 24.43 64.86 24.43 298.24 118.28 298.24"/>
    <polygon class="cls-8" points="117.55 300.73 121.87 298.24 117.55 295.74 117.55 300.73"/>
  </g>
  <g>
    <polyline class="cls-5" points="265.86 64.86 279.54 64.86 279.54 298.24 186.78 298.24"/>
    <polygon class="cls-8" points="187.51 295.74 183.19 298.24 187.51 300.73 187.51 295.74"/>
  </g>
  <rect class="cls-9" x="124.76" y="293.29" width="52.5" height="16.36"/>
  <text class="cls-1" transform="translate(136.62 303.5)"><tspan x="0" y="0">Dinas LH</tspan></text>
  <rect class="cls-9" x="98.13" y="343.04" width="105.76" height="17.12"/>
  <text class="cls-1" transform="translate(108.79 353.93)"><tspan x="0" y="0">Pembinaan &amp; Pengawasan</tspan></text>
  <rect class="cls-9" x="98.13" y="387.54" width="105.76" height="17.12"/>
  <text class="cls-1" transform="translate(138.95 398.43)"><tspan x="0" y="0">Mediasi</tspan></text>
  <rect class="cls-9" x="98.13" y="437.71" width="105.76" height="17.12"/>
  <text class="cls-1" transform="translate(137.4 448.61)"><tspan x="0" y="0">Fasilitasi</tspan></text>
  <rect class="cls-9" x="98.13" y="486.21" width="105.76" height="17.12"/>
  <text class="cls-1" transform="translate(134.67 497.11)"><tspan x="0" y="0">Monitoring</tspan></text>
  <g>
    <line class="cls-5" x1="151.01" y1="380.4" x2="151.01" y2="376.65"/>
    <polygon class="cls-8" points="153.5 379.67 151.01 383.99 148.52 379.67 153.5 379.67"/>
  </g>
  <line class="cls-5" x1="151.01" y1="361.05" x2="151.01" y2="374.65"/>
  <g>
    <line class="cls-5" x1="151.01" y1="332.66" x2="151.01" y2="328.91"/>
    <polygon class="cls-8" points="153.5 331.93 151.01 336.25 148.52 331.93 153.5 331.93"/>
  </g>
  <line class="cls-5" x1="151.01" y1="313.31" x2="151.01" y2="326.91"/>
  <g>
    <line class="cls-5" x1="151.01" y1="431.12" x2="151.01" y2="427.38"/>
    <polygon class="cls-8" points="153.5 430.39 151.01 434.71 148.52 430.39 153.5 430.39"/>
  </g>
  <line class="cls-5" x1="151.01" y1="411.77" x2="151.01" y2="425.38"/>
  <g>
    <line class="cls-5" x1="151.01" y1="479.62" x2="151.01" y2="475.88"/>
    <polygon class="cls-8" points="153.5 478.89 151.01 483.21 148.52 478.89 153.5 478.89"/>
  </g>
  <line class="cls-5" x1="151.01" y1="460.27" x2="151.01" y2="473.88"/>
</svg>