<?xml version="1.0" encoding="UTF-8"?>
<svg id="Layer_1" data-name="Layer 1" xmlns="http://www.w3.org/2000/svg" xmlns:xlink="http://www.w3.org/1999/xlink" viewBox="0 0 394.88 167.08">
  <defs>
    <style>
      .cls-1, .cls-2, .cls-3 {
        fill: #fff;
      }

      .cls-4 {
        letter-spacing: 0em;
      }

      .cls-5 {
        letter-spacing: -.02em;
      }

      .cls-2, .cls-6 {
        fill-rule: evenodd;
      }

      .cls-7 {
        fill: #231f20;
        font-size: 7px;
      }

      .cls-7, .cls-8, .cls-3 {
        font-family: ArialMT, Arial;
      }

      .cls-9, .cls-10, .cls-11, .cls-12, .cls-13 {
        fill: none;
      }

      .cls-9, .cls-10, .cls-12, .cls-13 {
        stroke: #00a69c;
        stroke-miterlimit: 10;
      }

      .cls-8, .cls-3 {
        font-size: 6px;
      }

      .cls-8, .cls-14 {
        fill: #f1f1f2;
      }

      .cls-6, .cls-15 {
        fill: #00a69c;
      }

      .cls-10 {
        stroke-dasharray: 0 0 2 2;
      }

      .cls-16 {
        clip-path: url(#clippath);
      }

      .cls-17 {
        letter-spacing: -.02em;
      }

      .cls-18 {
        fill: #45adad;
      }

      .cls-12 {
        stroke-dasharray: 0 0 2 2;
      }

      .cls-13 {
        stroke-dasharray: 0 0 1.99 1.99;
      }

      .cls-19 {
        letter-spacing: -.11em;
      }
    </style>
    <clipPath id="clippath">
      <rect class="cls-11" x="-570.03" y="-12.62" width="422.36" height="594.41"/>
    </clipPath>
  </defs>
  <g class="cls-16">
    <rect class="cls-11" x="-562.51" y="-12.43" width="841.89" height="592.79"/>
  </g>
  <g>
    <g>
      <rect class="cls-15" x="346.42" y="11.31" width="2.31" height="48.6"/>
      <rect class="cls-15" x="344.04" y="29.74" width="7.07" height="6.82"/>
      <rect class="cls-15" x="344.15" y="11.31" width="6.85" height="7.04"/>
    </g>
    <rect class="cls-15" x="346.42" y="79.49" width="2.31" height="67.52"/>
    <rect class="cls-15" x="344.04" y="102.85" width="7.07" height="6.82"/>
    <rect class="cls-15" x="344.15" y="139.83" width="6.85" height="7.04"/>
    <g>
      <polyline class="cls-12" points="246.42 124.57 151.42 124.57 71.55 124.57"/>
      <polygon class="cls-15" points="72.28 122.08 67.96 124.57 72.28 127.07 72.28 122.08"/>
    </g>
    <g>
      <polyline class="cls-12" points="347.57 143.35 347.57 163.68 50.99 163.68 50.99 154.35"/>
      <polygon class="cls-15" points="53.48 155.08 50.99 150.76 48.5 155.08 53.48 155.08"/>
    </g>
    <g>
      <line class="cls-12" x1="246.42" y1="106.26" x2="334.31" y2="106.26"/>
      <polygon class="cls-15" points="333.58 108.75 337.9 106.26 333.58 103.77 333.58 108.75"/>
    </g>
    <rect class="cls-15" x="49.41" y="79.49" width="2.31" height="67.52"/>
    <rect class="cls-15" x="47.14" y="139.83" width="6.85" height="7.04"/>
    <g>
      <line class="cls-9" x1="53.99" y1="14.83" x2="54.99" y2="14.83"/>
      <polyline class="cls-10" points="56.99 14.83 151.42 14.83 331.36 14.83"/>
      <line class="cls-9" x1="332.36" y1="14.83" x2="333.36" y2="14.83"/>
      <polygon class="cls-15" points="332.63 17.33 336.95 14.83 332.63 12.34 332.63 17.33"/>
    </g>
    <text class="cls-7" transform="translate(157.96 28.87)"><tspan x="0" y="0">Pendaftaran &amp; Pelaporan</tspan></text>
    <text class="cls-7" transform="translate(260.44 102.93)"><tspan x="0" y="0">Rekomendasi</tspan><tspan class="cls-17" x="42.8" y="0"> </tspan><tspan class="cls-19" x="44.62" y="0">T</tspan><tspan class="cls-4" x="48.12" y="0">eknis</tspan></text>
    <text class="cls-7" transform="translate(157.05 121.17)"><tspan x="0" y="0">Pembinaan &amp; Pengawasan</tspan></text>
    <text class="cls-7" transform="translate(271.44 10.32)"><tspan x="0" y="0">Permohonan Izin</tspan></text>
    <text class="cls-7" transform="translate(301.33 159.21)"><tspan x="0" y="0">Pemberi Izin</tspan></text>
    <rect class="cls-15" x="5.12" y="42.67" width="90.55" height="46.12"/>
    <rect class="cls-15" x="202.28" y="42.67" width="90.54" height="46.12"/>
    <rect class="cls-15" x="300.85" y="42.59" width="90.55" height="46.12"/>
    <g>
      <rect class="cls-1" x="36.81" y="46.65" width="4.01" height="16.02"/>
      <rect class="cls-1" x="36.81" y="45.83" width="4.01" height=".83"/>
      <path class="cls-15" d="m39.96,58.66h-2.29c-.17,0-.31.14-.31.31s.14.31.31.31h2.29c.17,0,.32-.14.32-.31s-.14-.31-.32-.31Zm0,1.25h-2.29c-.17,0-.31.14-.31.31s.14.31.31.31h2.29c.17,0,.32-.14.32-.31s-.14-.31-.32-.31Zm0-3.77h-2.29c-.17,0-.31.14-.31.32s.14.31.31.31h2.29c.17,0,.32-.14.32-.31s-.14-.32-.32-.32Zm0,1.26h-2.29c-.17,0-.31.14-.31.31s.14.31.31.31h2.29c.17,0,.32-.14.32-.31s-.14-.31-.32-.31Zm0,3.76h-2.29c-.17,0-.31.14-.31.31s.14.31.31.31h2.29c.17,0,.32-.14.32-.31s-.14-.31-.32-.31Zm-2.29-13.18h2.29c.17,0,.32-.14.32-.32s-.14-.31-.32-.31h-2.29c-.17,0-.31.14-.31.31s.14.32.31.32Zm2.29.63h-2.29c-.17,0-.31.14-.31.31s.14.31.31.31h2.29c.17,0,.32-.14.32-.31s-.14-.31-.32-.31Zm0,1.26h-2.29c-.17,0-.31.14-.31.31s.14.31.31.31h2.29c.17,0,.32-.14.32-.31s-.14-.31-.32-.31Zm0,5.02h-2.29c-.17,0-.31.14-.31.31s.14.31.31.31h2.29c.17,0,.32-.14.32-.31s-.14-.31-.32-.31Zm0-3.77h-2.29c-.17,0-.31.14-.31.31s.14.31.31.31h2.29c.17,0,.32-.14.32-.31s-.14-.31-.32-.31Zm0,1.26h-2.29c-.17,0-.31.14-.31.31s.14.31.31.31h2.29c.17,0,.32-.14.32-.31s-.14-.31-.32-.31Zm0,1.26h-2.29c-.17,0-.31.14-.31.31s.14.31.31.31h2.29c.17,0,.32-.14.32-.31s-.14-.31-.32-.31Z"/>
      <g>
        <rect class="cls-1" x="35.02" y="63.5" width="3.05" height="8.55"/>
        <rect class="cls-1" x="35.02" y="62.67" width="3.05" height=".82"/>
        <path class="cls-15" d="m35.56,64.71v.61h2.51v-.61h-2.51Zm0,1.81h2.51v-.6h-2.51v.6Zm0,1.21h2.51v-.61h-2.51v.61Zm0,1.21h2.51v-.6h-2.51v.6Zm0,1.21h2.51v-.61h-2.51v.61Zm0,1.21h2.51v-.6h-2.51v.6Z"/>
      </g>
      <g>
        <rect class="cls-1" x="40.82" y="50.16" width="3.05" height="5.41"/>
        <rect class="cls-1" x="40.82" y="49.33" width="3.05" height=".83"/>
        <path class="cls-15" d="m41.71,52.47c-.22,0-.39.18-.39.39s.18.39.39.39.39-.18.39-.39-.18-.39-.39-.39Zm0,1.53c-.22,0-.39.17-.39.39s.18.39.39.39.39-.17.39-.39-.18-.39-.39-.39Zm1.23-2.28c.22,0,.39-.18.39-.39s-.18-.39-.39-.39-.39.18-.39.39.17.39.39.39Zm0,.75c-.22,0-.39.18-.39.39s.17.39.39.39.39-.18.39-.39-.18-.39-.39-.39Zm-1.23-1.53c-.22,0-.39.18-.39.39s.18.39.39.39.39-.18.39-.39-.18-.39-.39-.39Zm1.23,3.06c-.22,0-.39.17-.39.39s.17.39.39.39.39-.17.39-.39-.18-.39-.39-.39Z"/>
      </g>
      <rect class="cls-1" x="38.07" y="56.39" width="7.25" height="15.66"/>
      <rect class="cls-1" x="38.07" y="55.57" width="7.25" height=".83"/>
      <path class="cls-15" d="m41.27,67.94h.69v-.88h-.69v.88Zm0-1.45h.69v-.88h-.69v.88Zm0,2.89h.69v-.88h-.69v.88Zm0-4.33h.69v-.88h-.69v.88Zm0,5.78h.69v-.88h-.69v.88Zm0-10.12h.69v-.88h-.69v.88Zm0,2.89h.69v-.88h-.69v.88Zm0-4.34h.69v-.88h-.69v.88Zm0,2.89h.69v-.88h-.69v.88Zm-2.44,1.44h1.96v-.88h-1.96v.88Zm0,4.34h1.96v-.88h-1.96v.88Zm0-1.45h1.96v-.88h-1.96v.88Zm0-8.67h1.96v-.88h-1.96v.88Zm0,11.56h1.96v-.88h-1.96v.88Zm0-4.33h1.96v-.88h-1.96v.88Zm0,5.78h1.96v-.88h-1.96v.88Zm0-10.12h1.96v-.88h-1.96v.88Zm0-1.44h1.96v-.88h-1.96v.88Zm0,2.89h1.96v-.88h-1.96v.88Zm2.44-4.34h.69v-.88h-.69v.88Zm1.3,1.45h.69v-.88h-.69v.88Zm1.3,4.34h.69v-.88h-.69v.88Zm0,2.89h.69v-.88h-.69v.88Zm0-1.44h.69v-.88h-.69v.88Zm0,2.89h.69v-.88h-.69v.88Zm-1.3,2.89h.69v-.88h-.69v.88Zm1.3-11.56h.69v-.88h-.69v.88Zm0,2.89h.69v-.88h-.69v.88Zm0-5.21v.88h.69v-.88h-.69Zm0,3.77h.69v-.88h-.69v.88Zm0,8.67h.69v-.88h-.69v.88Zm-1.3-1.44h.69v-.88h-.69v.88Zm0-1.45h.69v-.88h-.69v.88Zm0-1.44h.69v-.88h-.69v.88Zm0,4.33h.69v-.88h-.69v.88Zm1.3,1.45h.69v-.88h-.69v.88Zm-1.3-7.23h.69v-.88h-.69v.88Zm0-2.89h.69v-.88h-.69v.88Zm0-2.89h.69v-.88h-.69v.88Zm0,4.34h.69v-.88h-.69v.88Z"/>
      <rect class="cls-1" x="46.4" y="64.98" width="23.41" height="2.42"/>
      <g>
        <path class="cls-15" d="m47.43,65.85c-.23,0-.42.18-.42.41s.19.41.42.41.42-.18.42-.41-.19-.41-.42-.41Z"/>
        <path class="cls-15" d="m49.21,65.85c-.23,0-.42.18-.42.41s.19.41.42.41.42-.18.42-.41-.19-.41-.42-.41Z"/>
        <path class="cls-15" d="m50.99,65.85c-.23,0-.42.18-.42.41s.19.41.42.41.42-.18.42-.41-.19-.41-.42-.41Z"/>
        <path class="cls-15" d="m52.77,65.85c-.23,0-.42.18-.42.41s.19.41.42.41.42-.18.42-.41-.19-.41-.42-.41Z"/>
        <path class="cls-15" d="m54.55,65.85c-.23,0-.42.18-.42.41s.19.41.42.41.42-.18.42-.41-.19-.41-.42-.41Z"/>
        <path class="cls-15" d="m56.32,65.85c-.23,0-.42.18-.42.41s.19.41.42.41.42-.18.42-.41-.19-.41-.42-.41Z"/>
        <path class="cls-15" d="m58.1,65.85c-.23,0-.42.18-.42.41s.19.41.42.41.42-.18.42-.41-.19-.41-.42-.41Z"/>
        <path class="cls-15" d="m59.88,65.85c-.23,0-.42.18-.42.41s.19.41.42.41.42-.18.42-.41-.19-.41-.42-.41Z"/>
        <path class="cls-15" d="m61.66,65.85c-.23,0-.42.18-.42.41s.19.41.42.41.42-.18.42-.41-.19-.41-.42-.41Z"/>
        <path class="cls-15" d="m63.44,65.85c-.23,0-.42.18-.42.41s.19.41.42.41.42-.18.42-.41-.19-.41-.42-.41Z"/>
        <path class="cls-15" d="m65.22,65.85c-.23,0-.42.18-.42.41s.19.41.42.41.42-.18.42-.41-.19-.41-.42-.41Z"/>
        <path class="cls-15" d="m66.99,65.85c-.23,0-.42.18-.42.41s.19.41.42.41.42-.18.42-.41-.19-.41-.42-.41Z"/>
        <path class="cls-15" d="m68.77,65.85c-.23,0-.42.18-.42.41s.19.41.42.41.42-.18.42-.41-.19-.41-.42-.41Z"/>
      </g>
      <rect class="cls-1" x="38.06" y="70.83" width="33.04" height="1.21"/>
      <rect class="cls-1" x="40.79" y="67.39" width="29.02" height="3.44"/>
      <rect class="cls-1" x="47.75" y="64.05" width="19.03" height=".93"/>
      <rect class="cls-1" x="47.75" y="61.23" width="19.03" height="2.82"/>
      <path class="cls-15" d="m56.19,70.09h2.57v-.57h-2.57v.57Zm3.34-.92h2.57v-1.08h-2.57v1.08Zm-3.34,0h2.57v-1.08h-2.57v1.08Zm3.34.92h2.57v-.57h-2.57v.57Zm6.67,0h2.57v-.57h-2.57v.57Zm0-2v1.08h2.57v-1.08h-2.57Zm-3.34,2h2.57v-.57h-2.57v.57Zm0-.92h2.57v-1.08h-2.57v1.08Z"/>
      <g>
        <rect class="cls-15" x="54.62" y="61.81" width="1.58" height=".64"/>
        <rect class="cls-15" x="52.57" y="61.81" width="1.58" height=".64"/>
        <rect class="cls-15" x="50.53" y="61.81" width="1.58" height=".64"/>
        <rect class="cls-15" x="48.48" y="61.81" width="1.58" height=".64"/>
        <rect class="cls-15" x="54.62" y="62.86" width="1.58" height=".64"/>
        <rect class="cls-15" x="52.57" y="62.86" width="1.58" height=".64"/>
        <rect class="cls-15" x="50.53" y="62.86" width="1.58" height=".64"/>
        <rect class="cls-15" x="48.48" y="62.86" width="1.58" height=".64"/>
      </g>
    </g>
    <text class="cls-3" transform="translate(24.59 79.49)"><tspan x="0" y="0">Pengelola Kawasan </tspan><tspan x="3.67" y="7.2">dan Perusahaaan</tspan></text>
    <g>
      <line class="cls-9" x1="50.57" y1="33.15" x2="51.57" y2="33.15"/>
      <polyline class="cls-13" points="53.55 33.15 151.42 33.15 231.23 33.15"/>
      <line class="cls-9" x1="232.22" y1="33.15" x2="233.22" y2="33.15"/>
      <polygon class="cls-15" points="232.5 35.64 236.81 33.15 232.5 30.66 232.5 35.64"/>
    </g>
    <rect class="cls-15" x="150.27" y="11.31" width="2.31" height="48.6"/>
    <g>
      <rect class="cls-15" x="49.41" y="11.31" width="2.31" height="48.6"/>
      <rect class="cls-15" x="47.03" y="29.74" width="7.07" height="6.82"/>
      <rect class="cls-15" x="47.14" y="11.31" width="6.85" height="7.04"/>
    </g>
    <rect class="cls-15" x="147.89" y="29.74" width="7.07" height="6.82"/>
    <rect class="cls-15" x="148" y="11.31" width="6.85" height="7.04"/>
    <rect class="cls-15" x="245.26" y="29.74" width="2.31" height="30.17"/>
    <rect class="cls-15" x="242.89" y="29.74" width="7.07" height="6.82"/>
    <rect class="cls-15" x="150.27" y="79.49" width="2.31" height="67.52"/>
    <rect class="cls-15" x="148" y="139.83" width="6.85" height="7.04"/>
    <rect class="cls-15" x="47.14" y="121.17" width="6.85" height="7.04"/>
    <rect class="cls-15" x="148" y="121.17" width="6.85" height="7.04"/>
    <rect class="cls-15" x="245.26" y="79.76" width="2.31" height="48.33"/>
    <rect class="cls-15" x="242.89" y="102.85" width="7.07" height="6.82"/>
    <rect class="cls-15" x="242.89" y="121.28" width="7.07" height="6.82"/>
    <rect class="cls-15" x="103.7" y="42.67" width="90.54" height="46.12"/>
    <g>
      <path class="cls-2" d="m131.14,60.09c1.01-2.09,2.07-4.1,3.25-5.87,2.28-.29,4.55-.38,6.83-.24.37.12.65.39.73.94-.04,2.82.22,5.82-.12,8.47-2.58-.32-4.78-.24-5.96,1.03-.38.54-.57,1.2-.65,1.96l-3.99.23-.09-6.5Z"/>
      <path class="cls-6" d="m140.64,54.67l-4.94.12c-.58.05-1.02.35-1.34.84l-1.55,3.77c-.09.26-.03.57,0,.86,2.32-.51,4.59-1.24,6.86-2.08.42-.14.71-.35.83-.65l.14-2.86Z"/>
      <polygon class="cls-2" points="131.96 58.79 129.19 58.8 129.19 58.57 131.96 58.56 131.96 58.79"/>
      <rect class="cls-1" x="129.06" y="58.33" width=".34" height=".31"/>
      <path class="cls-2" d="m129.66,56.33h-.37c-.25.12-.42.31-.47.59v1.45s.84,0,.84,0v-2.04Z"/>
      <path class="cls-2" d="m132.26,64.38c-.59.36-1.79.12-1.76,1.07-.09,1.16.59,1.38,1.7,1.09l.06-2.16Z"/>
      <path class="cls-2" d="m132.29,62.43c-.63.08-1.16.29-1.45.76-.12.41-.06.86.11,1.31.45-.06.9-.2,1.34-.45v-1.62Z"/>
      <polygon class="cls-2" points="140.85 61.01 139.41 61.01 139.41 60.58 140.84 60.57 140.85 61.01"/>
      <polygon class="cls-2" points="144.28 55.96 145.29 55.85 145.32 52.35 145.76 51.84 146.16 51.76 146.12 51.26 146.88 51.25 146.99 51.61 158.72 51.22 158.83 50.81 159.64 50.72 159.9 51.1 171.27 50.71 171.83 50.34 172.54 50.34 174.02 54.11 174.05 54.37 174.26 54.4 174.27 55.47 174.07 55.46 174.09 57.32 174.37 57.34 174.42 58.47 174.09 58.45 173.57 60.81 145.86 61.82 146.51 63.41 145.46 63.41 145.11 63.17 145.11 63.95 144.59 63.95 144.59 63.6 143.75 63.6 143.75 63.2 144.58 63.2 144.58 62.82 144.33 62.65 144.28 55.96"/>
      <polygon class="cls-2" points="159.96 65.54 161.64 63.05 166.59 62.84 168.9 65.27 168.43 65.45 166.67 63.55 162.02 63.48 160.55 65.73 159.96 65.54"/>
      <polygon class="cls-6" points="148.24 52.51 148.41 54.65 153.02 54.51 153.05 54.66 153.36 54.66 153.33 54.5 158.24 54.35 157.96 51.97 158.53 54.68 153.42 54.83 153.46 55.04 153.09 55.04 153.05 54.84 148.25 54.98 148.24 52.51"/>
      <polygon class="cls-2" points="146.99 51.61 147.16 55.53 159.68 55.12 159.64 54.55 160.42 54.55 160.45 55.07 173.13 54.55 173.07 54.14 171.8 50.81 171.27 50.71 171.83 50.34 173.29 54.06 174.02 54.11 174.05 54.37 174.26 54.4 174.27 55.47 174.07 55.46 174.09 57.32 174.37 57.34 174.42 58.47 174.09 58.45 173.57 60.81 146.66 61.79 146.18 59.9 145.84 56.39 145.29 55.85 145.32 52.35 145.76 51.84 145.91 55.27 146.23 55.29 146.26 55.09 146.93 55.09 146.99 51.61"/>
      <polygon class="cls-6" points="147.12 56.15 153.04 55.97 153.08 56.75 147.43 56.93 147.27 60 147.12 56.15"/>
      <polygon class="cls-6" points="153.66 55.9 153.81 59.59 154.07 56.6 159.71 56.36 159.66 55.69 153.66 55.9"/>
      <polygon class="cls-6" points="160.47 55.65 160.64 59.41 160.78 56.29 166.48 56.29 166.46 55.45 160.47 55.65"/>
      <polygon class="cls-6" points="167.11 55.38 167.27 59.01 167.44 56.1 173.01 55.94 173.25 58.13 173.22 55.11 167.11 55.38"/>
      <polygon class="cls-2" points="146.15 59.6 146.5 59.99 147.27 60 147.28 59.59 159.79 59.25 159.85 59.45 160.64 59.41 160.66 59.17 167.27 59.01 174 58.86 173.57 60.81 146.66 61.79 146.18 59.9 146.15 59.6"/>
      <polygon class="cls-2" points="158.83 50.81 159.78 54.55 159.64 54.55 159.65 54.84 158.72 51.22 158.83 50.81"/>
      <polygon class="cls-2" points="160.42 54.55 159.9 51.1 159.64 50.72 160.42 54.55"/>
      <polygon class="cls-6" points="160.88 51.07 161.6 54.58 166.5 54.37 166.5 54.69 167.01 54.65 166.98 54.4 171.69 54.19 171.71 53.88 170.78 51.42 171.59 53.88 166.97 54.07 166.95 54.25 166.49 54.24 166.49 54.08 161.61 54.14 160.88 51.07"/>
      <rect class="cls-1" x="142.02" y="59.66" width=".5" height="4.3" transform="translate(-.25 .57) rotate(-.23)"/>
      <path class="cls-2" d="m142.27,63.96v3.36s1.53,0,1.53,0v.62l13.11-.04c1.13-.06,2.21-.26,3.19-.85v-3.14s-17.83.05-17.83.05h0Zm17.15,1.7h.49s0,.94,0,.94h-.49v-.94h0Zm-.35-.08v1.04s-.93-.52-.93-.52v-.52s.93,0,.93,0h0Zm-14.33,1.75v.36h-.75v-.36h.75Zm.42,0h1.65s0,.32,0,.32h-1.65s0-.32,0-.32h0Zm2.03-.26h.78s0,.56,0,.56h-.78s0-.56,0-.56h0Zm-.04-2.02h.84s0,1.35,0,1.35h-.84s0-1.35,0-1.35h0Zm-1.91.1h1.45s0,1.31,0,1.31h-1.45s0-1.31,0-1.31h0Zm-1.96-.17h.47s0,.62,0,.62h-.47s0-.62,0-.62h0Zm7.69-.49h.84s0,.96,0,.96h-.83s0-.96,0-.96h0Zm.69,1.32h.17s0,.31,0,.31h-.17s0-.31,0-.31h0Zm1.63-.06h1.07s0,.35,0,.35h-1.07s0-.35,0-.35h0Zm1.44,0h.92s0,.45,0,.45h-.92s0-.45,0-.45h0Zm-1.81,1.79h-1.99s0-.66,0-.66l.25.33h.89s.85-.31.85-.31v.64Z"/>
      <polygon class="cls-2" points="132.84 66.51 133.52 67.19 135.4 67.33 135.43 66.81 134.29 66.73 134.37 66.42 132.84 66.51"/>
      <path class="cls-2" d="m138.57,70.41c-1.78,0-3.23-1.44-3.24-3.22,0-1.77,1.44-3.22,3.22-3.23,1.78,0,3.24,1.44,3.24,3.21,0,1.78-1.44,3.23-3.22,3.23Z"/>
      <path class="cls-6" d="m138.57,69.15c-1.08,0-1.97-.88-1.98-1.96,0-1.08.89-1.96,1.97-1.96,1.09,0,1.97.87,1.97,1.95,0,1.09-.88,1.97-1.96,1.97Z"/>
      <path class="cls-2" d="m138.54,66.75c-.08,0-.15-.06-.15-.14,0-.08.07-.15.15-.15.08,0,.15.07.15.15,0,.08-.07.14-.15.14Z"/>
      <path class="cls-2" d="m137.76,67.34c-.08,0-.14-.07-.14-.15,0-.07.06-.14.14-.14s.15.07.15.14c0,.08-.06.15-.15.15Z"/>
      <path class="cls-2" d="m138.07,68.28c-.08,0-.15-.06-.15-.14,0-.08.07-.15.15-.15s.14.07.14.14-.06.14-.14.14Z"/>
      <path class="cls-2" d="m139.09,68.22c-.08,0-.15-.06-.15-.14,0-.08.07-.14.15-.14s.15.06.15.14c0,.08-.07.14-.15.14Z"/>
      <path class="cls-2" d="m139.36,67.36c-.08,0-.15-.07-.15-.14,0-.08.06-.14.15-.14s.15.07.15.14-.07.15-.15.15Z"/>
      <path class="cls-2" d="m164.22,70.41c-1.78,0-3.24-1.43-3.24-3.2,0-1.77,1.44-3.23,3.23-3.23,1.78,0,3.23,1.44,3.23,3.21,0,1.77-1.44,3.22-3.22,3.22Z"/>
      <path class="cls-6" d="m164.22,69.16c-1.09,0-1.97-.88-1.98-1.96,0-1.08.88-1.97,1.97-1.97,1.08,0,1.97.88,1.98,1.96,0,1.08-.88,1.96-1.97,1.97Z"/>
      <path class="cls-2" d="m164.19,66.74c-.08,0-.14-.06-.14-.14s.06-.14.14-.14.15.06.15.14-.06.14-.15.14Z"/>
      <path class="cls-2" d="m163.41,67.34c-.08,0-.15-.06-.15-.14,0-.08.07-.14.14-.14.08,0,.15.06.15.14,0,.08-.06.14-.14.14Z"/>
      <path class="cls-2" d="m163.72,68.28c-.08,0-.15-.06-.15-.14s.06-.14.15-.14c.08,0,.14.06.14.14s-.06.14-.14.14Z"/>
      <path class="cls-2" d="m164.74,68.22c-.08,0-.14-.06-.14-.14,0-.08.06-.15.14-.15.09,0,.15.07.15.15,0,.07-.06.14-.15.14Z"/>
      <path class="cls-2" d="m165.01,67.36c-.08,0-.15-.06-.15-.14s.07-.14.14-.14c.09,0,.15.07.15.14s-.06.14-.15.14Z"/>
      <polygon class="cls-2" points="172.99 61.45 172.99 60.83 146.66 61.79 145.86 61.82 146.51 63.41 145.46 63.41 145.11 63.17 145.11 63.95 160.1 63.91 160.1 65.31 161.64 63.05 166.59 62.84 167.74 64.06 168.57 64.93 169.62 64.86 169.69 65.22 171.94 65.22 171.9 63.77 170.74 63.81 170.42 63.23 171.07 62.37 172.33 62.32 172.3 61.49 172.99 61.45"/>
      <path class="cls-2" d="m160.1,67.05v-1.47s.45.15.45.15l1.47-2.24,4.65.06,1.52,1.64-1.13.47c-.55-1.01-1.62-1.69-2.85-1.69-1.78,0-3.23,1.45-3.23,3.23,0,.6.18,1.16.47,1.65-1.08-.57-1.34-1.8-1.34-1.8h0Zm7.5-2.21l-.76.1.25.3.69-.21-.17-.19Z"/>
      <polygon class="cls-2" points="168.9 65.27 169.27 67.35 168.62 67.21 168.43 65.45 168.9 65.27"/>
      <polygon class="cls-2" points="145.86 61.82 145.23 59.94 146.18 59.9 146.66 61.79 145.86 61.82"/>
      <polygon class="cls-2" points="145.23 59.94 145.29 55.85 145.84 56.39 146.18 59.9 145.23 59.94"/>
      <polygon class="cls-2" points="145.23 59.94 145.29 55.85 144.28 55.96 144.33 62.65 144.58 62.82 144.58 63.2 143.75 63.2 143.75 63.6 144.59 63.6 144.59 63.95 145.11 63.95 145.11 63.17 145.46 63.41 146.51 63.41 145.86 61.82 145.23 59.94"/>
      <path class="cls-2" d="m138.55,63.97c1.79,0,3.24,1.44,3.24,3.21v.14h.49v-3.36s-.26,0-.26,0v-3.89c0,1.14-.05,2.26-.19,3.31-2.58-.32-4.78-.24-5.96,1.03-.38.54-.57,1.2-.65,1.96l-.6.03v.17s.75.05.75.05c.27-1.5,1.59-2.65,3.17-2.65Z"/>
      <path class="cls-15" d="m132.25,64.08l3.08-1.65h0c.61-.35,1.26-.6,1.94-.77.67-.17,1.37-.25,2.1-.25h0l1.31.03.97.03c-1.4.25-2.91.3-4.27.64-.63.16-1.24.39-1.8.72h0l-3.31,1.75v-.51Z"/>
      <path class="cls-2" d="m140.64,54.67l-4.94.12c-.58.05-1.02.35-1.34.84l-1.55,3.77c-.09.26-.03.57,0,.86,2.32-.51,4.59-1.24,6.86-2.08.42-.14.71-.35.83-.65l.14-2.86h0Zm.6,2.87c-.13.32-.48.56-.96.72-2.6.93-5.22,1.73-7.88,2.3-.04-.33-.1-.68,0-.96l1.78-4.16c.37-.54.87-.87,1.54-.92l5.67-.14-.16,3.16Z"/>
      <polygon class="cls-2" points="145.23 59.94 144.31 59.95 144.33 62.65 144.58 62.82 144.58 63.2 143.75 63.2 143.75 63.6 144.59 63.6 144.59 63.95 145.11 63.95 145.11 63.17 145.46 63.41 146.51 63.41 145.86 61.82 145.23 59.94"/>
    </g>
    <text class="cls-3" transform="translate(133.98 77.32)"><tspan x="0" y="0">Penyedia Jasa </tspan><tspan x="-7.51" y="7.2">Pengolahan Sampah</tspan></text>
    <g>
      <line class="cls-12" x1="151.64" y1="163.68" x2="151.64" y2="154.35"/>
      <polygon class="cls-15" points="154.13 155.08 151.64 150.76 149.14 155.08 154.13 155.08"/>
    </g>
    <text class="cls-8" transform="translate(321.62 84.29)"><tspan x="0" y="0">Dinas PM dan PTS</tspan><tspan class="cls-5" x="51.02" y="0">P</tspan></text>
    <g>
      <polygon class="cls-14" points="349.67 51.64 344.38 51.64 337.31 58.14 356.73 58.14 349.67 51.64"/>
      <polygon class="cls-14" points="336.43 58.14 336.43 59.04 338.89 59.04 338.89 72.67 329.09 72.67 329.09 58.14 336.43 58.14"/>
      <g>
        <rect class="cls-18" x="331.11" y="63.81" width="2.36" height="2.35"/>
        <rect class="cls-18" x="334.51" y="63.81" width="2.36" height="2.35"/>
        <rect class="cls-18" x="331.11" y="60.38" width="2.36" height="2.35"/>
        <rect class="cls-18" x="334.51" y="60.38" width="2.36" height="2.35"/>
        <rect class="cls-18" x="331.11" y="67.24" width="2.36" height="2.35"/>
        <rect class="cls-18" x="334.51" y="67.24" width="2.36" height="2.35"/>
      </g>
      <polygon class="cls-14" points="357.61 58.14 357.61 59.04 355.14 59.04 355.14 72.67 364.95 72.67 364.95 58.14 357.61 58.14"/>
      <g>
        <rect class="cls-18" x="357.17" y="63.81" width="2.36" height="2.35"/>
        <rect class="cls-18" x="360.57" y="63.81" width="2.36" height="2.35"/>
        <rect class="cls-18" x="357.17" y="60.38" width="2.36" height="2.35"/>
        <rect class="cls-18" x="360.57" y="60.38" width="2.36" height="2.35"/>
        <rect class="cls-18" x="357.17" y="67.24" width="2.36" height="2.35"/>
        <rect class="cls-18" x="360.57" y="67.24" width="2.36" height="2.35"/>
      </g>
      <rect class="cls-14" x="339.79" y="58.14" width="14.47" height="14.53"/>
      <rect class="cls-18" x="345.13" y="67.26" width="3.79" height="5.41"/>
      <g>
        <rect class="cls-18" x="345.84" y="63.81" width="2.36" height="2.35"/>
        <rect class="cls-18" x="345.84" y="60.38" width="2.36" height="2.35"/>
      </g>
      <g>
        <rect class="cls-18" x="341.56" y="63.81" width="2.36" height="2.35"/>
        <rect class="cls-18" x="341.56" y="60.38" width="2.36" height="2.35"/>
        <rect class="cls-18" x="341.56" y="67.24" width="2.36" height="2.35"/>
      </g>
      <g>
        <g>
          <rect class="cls-18" x="350.12" y="63.81" width="2.36" height="2.35"/>
          <rect class="cls-18" x="350.12" y="60.38" width="2.36" height="2.35"/>
        </g>
        <rect class="cls-18" x="350.12" y="67.24" width="2.36" height="2.35"/>
      </g>
      <polygon class="cls-14" points="352.59 53.14 357.14 57.33 364.95 57.33 360.42 53.14 352.59 53.14"/>
      <polygon class="cls-14" points="341.45 53.14 336.9 57.33 329.09 57.33 333.62 53.14 341.45 53.14"/>
      <polygon class="cls-14" points="332.97 51.64 326.82 57.43 327.43 58.07 333.32 52.51 342.15 52.51 343.1 51.64 332.97 51.64"/>
      <polygon class="cls-14" points="361.26 51.64 367.4 57.43 366.8 58.07 360.91 52.51 352.07 52.51 351.12 51.64 361.26 51.64"/>
    </g>
    <text class="cls-8" transform="translate(210.18 84.29)"><tspan x="0" y="0">Dinas Lingkungan Hidup</tspan></text>
    <g>
      <rect class="cls-14" x="229.78" y="51.31" width="16.64" height="1.32"/>
      <polygon class="cls-14" points="246.42 65.96 259.94 65.96 255.26 61.65 246.42 61.65 246.42 65.96"/>
      <polygon class="cls-14" points="255.98 60.17 246.42 60.17 246.42 60.98 246.42 61.07 255.62 61.07 261.2 66.3 261.81 65.64 255.98 60.17"/>
      <polygon class="cls-14" points="259.94 75.09 230.7 75.09 230.7 51.97 245.5 51.97 245.5 65.96 259.94 65.96 259.94 75.09"/>
      <rect class="cls-1" x="254.32" y="68.48" width="2.43" height="2.42"/>
      <rect class="cls-15" x="233.31" y="64.59" width="5.94" height="2.42"/>
      <rect class="cls-15" x="240.31" y="64.59" width="2.43" height="2.42"/>
      <rect class="cls-15" x="233.31" y="57.52" width="9.44" height="2.42"/>
      <rect class="cls-15" x="233.31" y="53.99" width="2.43" height="2.42"/>
      <rect class="cls-15" x="236.81" y="53.99" width="2.43" height="2.42"/>
      <rect class="cls-15" x="236.81" y="61.06" width="2.43" height="2.42"/>
      <rect class="cls-15" x="240.31" y="61.06" width="2.43" height="2.42"/>
      <rect class="cls-15" x="233.31" y="68.48" width="2.43" height="2.42"/>
      <rect class="cls-15" x="236.81" y="68.48" width="5.93" height="2.42"/>
      <rect class="cls-15" x="243.81" y="68.48" width="2.43" height="2.42"/>
      <rect class="cls-15" x="247.32" y="68.48" width="9.43" height="2.42"/>
    </g>
  </g>
</svg>